<svg version="1.1" id="Layer_1" xmlns="http://www.w3.org/2000/svg" xmlns:xlink="http://www.w3.org/1999/xlink" x="0px" y="0px"
	 width="100%" viewBox="0 0 1281 1299" enable-background="new 0 0 1281 1299" xml:space="preserve">
<path fill="#D9CDBD" opacity="1.000000" stroke="none" 
	d="
M870.000000,1300.000000 
	C580.000000,1300.000000 290.500000,1300.000000 1.000000,1300.000000 
	C1.000000,867.000000 1.000000,434.000000 1.000000,1.000000 
	C428.000000,1.000000 855.000000,1.000000 1282.000000,1.000000 
	C1282.000000,434.000000 1282.000000,867.000000 1282.000000,1300.000000 
	C1144.833374,1300.000000 1007.666687,1300.000000 870.000000,1300.000000 
M228.370560,696.650146 
	C228.547562,696.309753 228.724564,695.969360 229.122131,695.016907 
	C247.215439,671.996704 265.051270,648.766113 283.571747,626.094849 
	C288.595367,619.945374 290.134674,614.633789 287.138062,607.324097 
	C285.738983,603.911194 284.510162,602.378723 280.600922,602.413147 
	C258.300964,602.609375 235.998398,602.508240 213.696732,602.528870 
	C212.232071,602.530212 210.767563,602.703247 209.112396,602.808594 
	C209.112396,608.426331 209.112396,613.721619 209.727371,619.536743 
	C211.523361,619.691162 213.319046,619.975525 215.115372,619.979614 
	C230.662903,620.014648 246.211349,619.926453 261.757019,620.100403 
	C263.504089,620.119995 265.235535,621.537476 266.781250,622.852295 
	C265.819611,624.260376 264.857971,625.668457 263.351044,627.448792 
	C263.272919,627.654541 263.194794,627.860229 262.636292,628.320190 
	C260.976990,630.577515 259.317688,632.834839 257.278625,635.288208 
	C257.278625,635.288208 257.119751,635.685059 256.636597,635.991028 
	C256.013641,636.964844 255.390686,637.938721 254.909805,638.932068 
	C254.909805,638.932068 254.918213,638.788940 254.308640,639.073669 
	C252.118073,642.012939 249.927521,644.952209 247.887894,647.917664 
	C247.887894,647.917664 247.900436,647.765015 247.369263,647.969849 
	C247.199692,648.300537 247.030121,648.631226 246.963486,648.960754 
	C246.963486,648.960754 246.956833,648.858032 246.381760,649.129761 
	C245.184799,650.779846 243.987839,652.429871 242.328842,654.404297 
	C242.253983,654.576965 242.179123,654.749573 241.645355,655.130127 
	C241.326950,655.713257 241.008560,656.296326 240.861908,656.897888 
	C240.861908,656.897888 240.863144,656.725159 240.251755,656.986206 
	C238.702789,659.017700 237.153824,661.049133 235.247070,663.325195 
	C235.247070,663.325195 235.129654,663.742371 234.642700,664.034424 
	C234.033005,665.004150 233.423309,665.973938 232.939621,666.951477 
	C232.939621,666.951477 232.939590,666.825256 232.340393,667.112427 
	C231.166275,668.721130 229.992172,670.329773 228.938110,671.945923 
	C228.938110,671.945923 228.937271,671.825623 228.343735,672.129822 
	C225.874985,675.409119 223.406250,678.688416 221.000687,681.985718 
	C221.000687,681.985718 220.962524,681.932190 220.599442,682.067749 
	C220.426651,682.389343 220.253845,682.710938 219.449005,683.498230 
	C219.329468,683.731018 219.209915,683.963806 218.607300,684.390320 
	C216.010559,687.904968 213.413818,691.419678 210.934631,694.929932 
	C210.934631,694.929932 210.920425,694.813171 210.506927,694.962280 
	C210.299438,695.326843 210.091949,695.691467 209.358353,696.430298 
	C209.269379,696.626282 209.180420,696.822205 208.583588,697.233093 
	C207.399933,699.746948 205.078354,702.361511 205.289795,704.751953 
	C205.638092,708.689575 207.625198,712.482239 208.874252,716.651367 
	C208.874252,716.651367 209.061081,716.909912 208.987274,717.421875 
	C209.005386,717.593323 209.023483,717.764832 209.649872,718.498291 
	C210.614960,718.675293 211.579834,719.005676 212.545135,719.006958 
	C235.427368,719.037048 258.309692,719.046265 281.191864,718.993286 
	C282.442535,718.990417 283.691895,718.413696 285.480194,717.592773 
	C285.610260,713.053833 285.855865,708.513062 285.780823,703.977478 
	C285.764191,702.973022 284.614594,701.987244 283.334900,700.484436 
	C281.530273,700.325012 279.725952,700.031799 277.920929,700.027283 
	C262.628632,699.989075 247.335617,700.064636 232.044662,699.915649 
	C230.363968,699.899353 228.694916,698.686035 226.997223,698.001648 
	C226.997223,698.001648 227.029648,698.013000 227.438171,697.726685 
	C227.687408,697.494141 227.865982,697.216248 227.981277,696.979980 
	C227.981277,696.979980 227.894119,696.984619 228.370560,696.650146 
M357.537262,353.117218 
	C357.697296,353.414337 357.857330,353.711487 358.200195,354.473511 
	C358.411804,354.753326 358.690186,354.924591 359.201416,355.441895 
	C359.394562,355.738495 359.668091,355.887085 360.039246,355.976990 
	C360.039246,355.976990 360.127655,355.955688 360.416931,356.447510 
	C360.887970,356.749817 361.359009,357.052124 361.882446,357.174225 
	C361.882446,357.174225 361.697723,357.140900 361.881927,357.726654 
	C362.211853,357.956970 362.541748,358.187317 363.012360,358.771301 
	C363.182770,358.986328 363.405182,359.092590 363.945770,359.621582 
	C364.278137,359.826172 364.610535,360.030762 365.257294,360.792938 
	C366.892487,362.179871 368.527679,363.566833 370.420563,365.467468 
	C370.907471,365.741821 371.394379,366.016174 371.789703,366.157379 
	C371.789703,366.157379 371.667999,366.263733 371.767303,366.695831 
	C371.767303,366.695831 371.983490,367.084442 372.664581,367.556702 
	C374.643524,367.706543 376.622223,367.983063 378.601410,367.986511 
	C397.094818,368.018738 415.588348,368.000580 434.081818,368.004913 
	C440.997772,368.006531 441.006897,368.015991 441.008179,374.733948 
	C441.013885,404.889984 440.983673,435.046143 441.086945,465.201843 
	C441.093567,467.130554 442.118469,469.055786 442.912964,470.993073 
	C442.912964,470.993073 443.017761,471.212799 443.236633,471.851776 
	C447.939331,472.166534 452.640015,472.532379 457.347809,472.716888 
	C457.817780,472.735291 458.330963,471.650909 458.845612,470.882355 
	C458.845612,470.882355 459.024323,470.798981 459.554718,470.220642 
	C459.667297,469.910156 459.878143,469.599762 459.878540,469.289124 
	C459.922607,433.582947 459.974487,397.876709 459.892487,362.170776 
	C459.889282,360.780579 458.595673,359.393372 457.734344,357.801086 
	C457.734344,357.801086 457.869019,357.573273 457.926300,356.703705 
	C457.242615,354.852753 456.558929,353.001770 454.964905,350.991394 
	C429.353210,350.957825 403.741486,350.924286 377.873169,350.491211 
	C377.631805,350.261200 377.344452,350.141357 376.993286,349.996124 
	C376.993286,349.996124 376.857758,350.014313 376.602478,349.504669 
	C376.118378,349.222107 375.634277,348.939545 375.154388,348.833679 
	C375.154388,348.833679 375.329041,348.806335 375.097748,348.221924 
	C374.432129,347.737091 373.766510,347.252258 373.094177,346.901001 
	C373.094177,346.901001 373.227722,346.893738 372.996124,346.321472 
	C372.344543,345.840881 371.692932,345.360260 371.036682,344.957764 
	C371.036682,344.957764 371.114899,344.956787 370.919952,344.460907 
	C370.621490,344.289368 370.323029,344.117828 370.007355,344.002411 
	C370.007355,344.002411 370.050415,343.962341 369.735260,343.417389 
	C368.694000,343.476807 367.652740,343.536224 366.687164,343.716278 
	C366.687164,343.716278 366.793213,343.621185 366.202637,343.727417 
	C365.813568,344.160095 365.424469,344.592773 365.000000,345.000000 
	C365.000000,345.000000 365.025513,345.035278 364.475555,345.282562 
	C364.200256,345.805969 363.924957,346.329376 363.834473,346.876648 
	C363.834473,346.876648 363.837769,346.690338 363.275879,346.871216 
	C363.083801,347.200897 362.891724,347.530579 362.866730,347.858978 
	C362.866730,347.858978 362.845703,347.693237 362.279907,347.866455 
	C362.086060,348.196259 361.892212,348.526031 361.858093,348.861786 
	C361.858093,348.861786 361.843842,348.702545 361.292847,348.893219 
	C361.114136,349.229370 360.935425,349.565491 360.899536,349.893890 
	C360.899536,349.893890 360.877167,349.752625 360.303802,349.999176 
	C359.796173,350.637695 359.288544,351.276215 358.914337,351.924774 
	C358.914337,351.924774 358.912872,351.790924 358.390137,351.997223 
	C358.237518,352.328369 358.084900,352.659546 357.995514,352.989410 
	C357.995514,352.989410 357.959808,352.937195 357.537262,353.117218 
M699.898560,348.097321 
	C699.898560,348.097321 699.907349,348.244171 699.613586,347.721802 
	C699.277100,347.518585 698.940552,347.315369 698.236328,347.038635 
	C698.236328,347.038635 697.977661,346.766968 697.749207,346.435852 
	C697.569031,346.230865 697.354248,346.072906 696.634033,345.766541 
	C696.432556,345.499390 696.231079,345.232269 695.979004,344.235260 
	C694.944641,343.539703 693.910217,342.844147 692.349915,342.089050 
	C692.181824,342.035156 692.013794,341.981293 691.672180,341.718262 
	C691.361389,341.673859 691.198792,341.825104 690.868652,342.760498 
	C687.653809,346.275726 684.438965,349.790955 681.090271,353.452576 
	C685.060547,357.059479 688.780212,360.145111 692.139038,363.583252 
	C694.808960,366.316101 697.765320,367.105103 701.494629,367.077332 
	C721.306580,366.929779 741.120239,367.001556 760.933289,367.021240 
	C762.676025,367.022980 764.418579,367.196899 766.624512,367.315796 
	C766.624512,402.152283 766.624512,436.397583 766.624512,470.896088 
	C772.412476,470.896088 777.704346,470.896088 783.526794,470.285828 
	C783.665405,469.811218 783.924927,469.336731 783.925354,468.862030 
	C783.955994,432.942383 784.073120,397.021942 783.800842,361.104462 
	C783.775574,357.770844 781.268005,354.455994 779.218506,351.003052 
	C778.761963,350.889893 778.305420,350.776764 777.151123,350.286011 
	C775.163147,350.187622 773.175903,350.025970 771.187012,350.000488 
	C747.739380,349.699951 724.291504,349.419800 700.914307,349.098389 
	C700.914307,349.098389 700.925537,349.176788 700.666992,348.694763 
	C700.362427,348.503326 700.057800,348.311890 699.898560,348.097321 
M598.675720,606.693237 
	C598.361389,606.510071 598.046997,606.326843 597.839417,606.192993 
	C597.839417,606.192993 597.771851,606.289185 597.764709,605.564392 
	C595.957886,604.259399 594.317261,602.561707 592.316528,601.714905 
	C581.535889,597.152222 570.485107,598.814209 559.601746,601.125122 
	C555.575867,601.979980 551.874695,604.363525 548.007996,605.996582 
	C548.007996,605.996582 548.046814,606.037598 547.231750,606.007080 
	C544.519958,607.392090 541.808228,608.777100 539.045776,610.081238 
	C539.045776,610.081238 539.136902,610.109863 538.310059,609.981689 
	C537.540466,608.239563 536.126343,606.505981 536.103333,604.754028 
	C535.919983,590.792542 536.032410,576.827515 535.963013,562.864014 
	C535.953369,560.928833 535.444824,558.996216 535.025513,556.535339 
	C534.997437,556.355530 534.969360,556.175781 534.698547,555.249146 
	C532.184265,554.837769 529.674805,554.108887 527.154846,554.070740 
	C517.000732,553.917175 517.007874,553.995911 517.008606,563.989075 
	C517.012085,613.300537 516.987732,662.612061 517.093079,711.923279 
	C517.097412,713.952393 518.302856,715.978943 518.988525,717.985840 
	C518.988525,717.985840 519.000427,718.028137 519.238708,718.747925 
	C524.555176,720.294128 529.834290,721.122009 535.024780,717.430359 
	C535.072083,717.264221 535.119324,717.098083 535.620789,716.257690 
	C535.747986,714.281799 535.983032,712.306030 535.985962,710.329956 
	C536.025574,683.268555 536.033142,656.207153 536.514954,628.630371 
	C545.365356,622.793457 554.901123,618.559692 565.375244,616.713196 
	C581.891235,613.801514 592.968445,618.005432 592.931396,638.930420 
	C592.888367,663.247742 593.282776,687.565796 593.483704,711.883545 
	C593.499634,713.811462 593.485779,715.739624 593.485779,717.660461 
	C599.182190,717.660461 604.091736,717.660461 609.503113,717.660461 
	C609.503113,715.020691 609.517578,712.717590 609.500854,710.414795 
	C609.337524,687.928589 609.245850,665.441467 608.967285,642.956665 
	C608.841553,632.807617 608.666199,622.606995 603.834290,612.578430 
	C603.431091,612.102600 603.027893,611.626770 602.770752,611.206726 
	C602.770752,611.206726 602.688904,611.340027 602.740540,610.651367 
	C602.108459,610.133301 601.476379,609.615295 600.925964,609.070740 
	C600.925964,609.070740 600.942566,609.155029 600.704407,608.673950 
	C600.419739,608.464233 600.135071,608.254517 599.958679,608.041321 
	C599.958679,608.041321 599.956055,608.149597 599.703003,607.670898 
	C599.410400,607.467285 599.117737,607.263733 598.947266,607.056519 
	C598.947266,607.056519 598.942932,607.178711 598.675720,606.693237 
M526.283936,357.392578 
	C527.175293,357.943542 528.066650,358.494507 529.392822,359.242981 
	C529.663391,359.428040 529.864685,359.670593 530.257507,360.415588 
	C530.544800,360.595978 530.832092,360.776398 531.531860,361.156799 
	C531.791565,361.339600 531.970825,361.581970 532.138794,362.595032 
	C534.036377,366.371246 536.975708,368.062225 541.318420,368.027161 
	C557.965759,367.892700 574.614746,367.962921 591.263123,367.972137 
	C597.818970,367.975739 597.962158,368.113434 597.964417,374.697144 
	C597.974548,404.331299 597.954224,433.965454 598.003296,463.599518 
	C598.006836,465.712158 598.480225,467.824036 599.285400,470.637360 
	C604.527832,470.637360 609.770203,470.637360 615.474854,470.637360 
	C615.474854,468.568451 615.474670,466.768097 615.474915,464.967773 
	C615.478760,433.694702 615.591431,402.420929 615.382385,371.149292 
	C615.346313,365.756592 613.848999,360.384308 613.207397,354.981110 
	C612.806213,351.602295 611.048828,350.778198 607.835144,350.806396 
	C591.534424,350.949432 575.221924,350.530151 558.933777,351.004486 
	C549.640198,351.275146 541.102905,350.786011 534.930054,342.682404 
	C534.764282,342.464844 534.342041,342.442657 533.330750,342.064087 
	C530.083862,345.839935 526.660095,349.821533 523.219299,354.507019 
	C524.244751,355.232635 525.270203,355.958252 526.043213,356.978241 
	C526.043213,356.978241 526.310181,356.696594 526.283936,357.392578 
M363.655731,471.461151 
	C368.744202,471.327301 373.832703,471.193481 379.319641,470.340607 
	C379.377625,447.748932 379.468292,425.157166 379.389404,402.565979 
	C379.385742,401.523407 377.861206,400.486115 376.351501,399.281128 
	C375.883911,399.342133 375.416290,399.403107 374.179016,399.284027 
	C373.131805,399.346252 372.084625,399.408447 370.346405,399.294434 
	C369.878265,399.352844 369.410126,399.411255 368.168030,399.280731 
	C366.408569,399.533997 364.649078,399.787231 362.419617,400.710602 
	C362.287567,401.354858 362.040833,401.998962 362.040039,402.643402 
	C362.013458,424.190247 361.992401,445.737213 362.050690,467.283905 
	C362.054016,468.505859 362.736084,469.726013 363.030609,470.969482 
	C363.030609,470.969482 363.052979,470.897797 363.655731,471.461151 
M916.788757,717.150330 
	C916.708923,716.767029 916.629028,716.383728 916.742920,715.087219 
	C916.742920,710.641235 916.742920,706.195190 916.742920,701.198303 
	C914.374390,701.198303 912.587585,701.198181 910.800781,701.198303 
	C899.137512,701.199463 887.470459,701.032104 875.812866,701.290344 
	C871.552124,701.384644 870.013184,700.316895 870.115662,695.767761 
	C870.419495,682.278442 871.135681,668.698547 869.962585,655.305420 
	C868.892456,643.087830 874.182495,634.592712 881.958740,626.625061 
	C890.251038,618.128662 900.108032,614.428223 911.892883,617.222473 
	C915.215454,618.010254 918.386902,619.435425 921.889282,620.659668 
	C923.715271,615.515076 925.465820,610.583191 927.248169,605.561646 
	C918.825500,601.157104 910.494385,599.141968 901.664795,600.164978 
	C887.403503,601.817261 877.843262,610.814636 868.755737,621.484314 
	C868.755737,615.311768 868.755737,609.139160 868.755737,602.859070 
	C856.828308,602.859070 845.589844,602.859070 833.456970,602.859070 
	C834.051697,608.571655 834.603210,613.869751 835.805847,619.623779 
	C839.939758,619.749695 844.083618,620.107971 848.204712,619.932800 
	C851.952698,619.773438 853.058472,621.232849 853.040649,624.863281 
	C852.926147,648.269104 852.900330,671.676514 853.077576,695.081665 
	C853.108887,699.218933 851.493774,700.130493 847.782227,700.096313 
	C843.557190,700.057373 839.326172,700.667908 835.113708,701.240723 
	C835.113708,701.240723 835.136841,701.484680 834.398499,701.795288 
	C834.288757,707.161255 834.179016,712.527283 834.584167,718.440613 
	C839.290833,718.638855 843.997070,718.994385 848.704285,719.008423 
	C869.583191,719.070923 890.462463,719.068054 911.341187,718.978882 
	C913.186096,718.971008 915.027588,718.168274 916.788757,717.150330 
M1079.620850,716.257446 
	C1079.733887,715.774109 1079.945435,715.290894 1079.945801,714.807495 
	C1079.970215,685.681763 1080.012695,656.555847 1079.900146,627.430542 
	C1079.893188,625.624573 1078.651978,623.823364 1077.549927,621.437805 
	C1073.994995,609.243958 1065.658081,602.515076 1053.325684,600.677002 
	C1035.595337,598.034607 1019.365784,602.966431 1003.897461,611.104858 
	C993.853943,616.389038 993.903015,616.502869 999.173767,626.228943 
	C999.858032,627.491638 1000.682312,628.678467 1001.513062,630.015198 
	C1004.210999,628.364563 1006.566040,626.796021 1009.035156,625.434448 
	C1021.931763,618.322266 1035.324707,613.127197 1050.459229,615.891541 
	C1057.939941,617.257935 1062.198608,621.415955 1062.717651,628.956299 
	C1063.296631,637.367004 1062.850342,645.848267 1062.850342,654.267029 
	C1062.568848,654.336731 1062.382812,654.450134 1062.249268,654.405762 
	C1060.211060,653.727722 1058.200195,652.960144 1056.143555,652.345703 
	C1038.563232,647.093506 1021.309387,647.287170 1004.748047,655.946960 
	C991.846191,662.693359 985.337830,675.230225 986.738586,689.907532 
	C988.082458,703.988281 996.179260,713.906067 1010.587463,718.014771 
	C1027.252441,722.767029 1043.190430,720.199219 1058.345215,712.023438 
	C1059.840698,711.216736 1061.520020,710.750854 1063.017700,710.997559 
	C1063.017700,713.235352 1063.017700,715.473145 1063.017700,718.531372 
	C1068.919189,717.946777 1074.042969,717.439270 1079.620850,716.257446 
M704.358582,470.331970 
	C704.565186,469.713226 704.951416,469.094818 704.952576,468.475708 
	C704.994080,446.537109 705.021057,424.598358 704.948547,402.659973 
	C704.944763,401.518250 704.050598,400.379456 702.691162,399.258850 
	C697.555420,399.214661 692.419617,399.170471 686.651672,399.655914 
	C686.437561,400.606873 686.038208,401.557495 686.036621,402.508759 
	C686.000610,424.062531 685.991150,445.616394 686.052063,467.170013 
	C686.055542,468.397369 686.701660,469.622925 687.969910,470.967102 
	C693.214905,470.919006 698.459961,470.870880 704.358582,470.331970 
M431.900146,632.960144 
	C431.988037,639.952942 432.075958,646.945801 431.755432,654.471863 
	C430.357330,654.084778 428.935913,653.766296 427.564636,653.300293 
	C409.119446,647.032410 390.894775,646.749329 373.306824,655.986572 
	C359.967651,662.992249 353.323334,676.332764 355.263214,690.943604 
	C357.129303,704.998718 366.328796,715.310974 381.084381,718.663330 
	C396.928406,722.262939 412.195404,720.107544 426.526245,712.201721 
	C428.012054,711.382080 429.522980,710.607910 431.464478,709.578003 
	C431.765717,712.849243 431.986725,715.248901 432.219727,717.779297 
	C437.339355,717.779297 442.116180,717.779297 447.493835,717.779297 
	C447.493835,715.766357 447.493591,713.974548 447.493866,712.182678 
	C447.497589,685.850403 447.514740,659.518066 447.483459,633.185791 
	C447.480499,630.693542 447.320312,628.181580 446.983215,625.712891 
	C445.263977,613.122009 437.389862,603.705383 425.174103,601.307556 
	C402.138000,596.785583 381.998077,604.478516 362.752960,617.024109 
	C365.278351,621.653015 367.538818,625.796265 369.852020,630.036255 
	C373.297638,628.029297 376.138428,626.313171 379.035614,624.698181 
	C389.824615,618.684204 401.191803,614.737000 413.751190,615.134155 
	C424.761963,615.482361 429.374756,619.379639 431.513245,630.123047 
	C431.642578,630.772766 431.869873,631.402954 431.900146,632.960144 
M703.736145,651.185608 
	C700.031006,652.660706 696.146179,653.800110 692.652222,655.669861 
	C678.584473,663.197937 671.808777,676.703430 674.227112,691.808655 
	C676.555664,706.352539 686.354980,716.084229 702.221802,719.105103 
	C717.502502,722.014465 732.027832,719.632263 745.648560,712.022339 
	C746.986145,711.275024 748.347473,710.570068 750.170410,709.591858 
	C750.443970,712.909790 750.642883,715.322266 750.835205,717.654175 
	C756.219849,717.654175 761.127686,717.654175 766.541077,717.654175 
	C766.541077,714.165833 766.555176,711.028259 766.538940,707.890869 
	C766.402283,681.570679 766.613342,655.242065 765.986755,628.933472 
	C765.612000,613.198853 756.649536,603.287292 741.266968,600.850708 
	C720.613281,597.579163 702.161255,604.113037 684.913330,614.947083 
	C683.835693,615.624084 682.912048,616.546265 681.817200,617.435120 
	C684.160706,621.768433 686.344177,625.805725 688.637390,630.045959 
	C692.281250,627.917969 695.365662,625.965576 698.583069,624.264648 
	C710.866455,617.770691 723.624451,613.308655 737.836670,615.874146 
	C743.484680,616.893738 748.407288,619.695129 749.220459,625.612000 
	C750.514282,635.026062 750.738281,644.587097 751.492676,655.179932 
	C735.209900,648.684448 720.057373,647.192261 703.736145,651.185608 
M865.154541,362.179779 
	C869.714172,363.567596 874.273804,364.955444 879.276733,366.478210 
	C878.088379,368.513580 877.225891,370.078308 876.282715,371.592804 
	C865.760925,388.488861 863.792480,406.199005 872.126892,424.425598 
	C879.212036,439.920166 886.965271,455.109253 894.497803,470.587463 
	C898.746887,470.587463 903.802856,470.587463 910.550293,470.587463 
	C907.255493,462.159058 904.707825,454.483398 901.296997,447.212646 
	C897.135437,438.341797 891.809143,430.010376 887.767212,421.091858 
	C879.341125,402.499329 882.340942,385.510498 895.949402,370.253601 
	C898.192139,367.739319 900.498718,366.870270 903.726746,366.947388 
	C911.153320,367.124786 918.587036,367.003632 926.107910,367.003632 
	C926.107910,361.312683 926.107910,356.270691 926.107910,350.872986 
	C902.389832,350.617737 878.714172,353.428680 856.344543,342.189056 
	C854.649353,348.269958 853.300232,353.109436 851.884583,358.187500 
	C856.448730,359.577484 860.410461,360.783997 865.154541,362.179779 
M681.482910,958.937073 
	C694.073059,952.205688 698.230896,933.868958 688.505859,927.188110 
	C685.607544,929.828491 684.174377,932.372559 686.248657,936.647583 
	C690.535706,945.483215 684.567505,953.672241 674.685608,953.183716 
	C671.532776,953.027832 669.649536,951.808716 669.648499,948.455078 
	C682.274231,941.589111 684.520996,933.711975 675.522278,927.162903 
	C673.012390,929.829712 671.446045,932.495239 673.437988,936.357239 
	C675.503174,940.361389 673.493042,942.085571 669.383850,942.528748 
	C667.359619,937.337402 669.195190,930.791687 662.352722,926.489563 
	C661.563538,929.723328 660.139771,932.473206 660.438843,935.020813 
	C660.947388,939.352417 662.959412,943.495056 663.596130,947.826416 
	C665.228027,958.927673 669.892151,962.155090 681.482910,958.937073 
M854.609314,937.207825 
	C857.214233,939.930847 857.311340,942.949036 856.229248,946.451294 
	C855.024597,950.350098 854.365723,954.417542 853.479919,958.363708 
	C858.173157,959.912598 859.791687,958.742615 860.243896,954.353271 
	C860.714355,949.786072 862.122314,945.249390 863.636536,940.878174 
	C864.728516,937.726013 867.402161,934.938660 870.832886,936.400146 
	C872.788757,937.233398 873.850342,940.514404 874.946472,942.864929 
	C875.464294,943.975586 875.026794,945.500061 875.179321,946.818909 
	C875.570496,950.201233 874.319336,951.787720 870.736633,951.468079 
	C865.660339,951.015320 864.379944,953.771118 865.330994,958.405029 
	C870.412781,958.405029 875.444397,958.405029 880.695923,958.405029 
	C880.695923,951.504333 880.940552,945.021179 880.607178,938.567871 
	C880.396423,934.488220 879.004761,930.518677 874.564026,929.037659 
	C869.963623,927.503296 866.051025,928.740234 863.153748,932.804749 
	C862.832703,933.255066 862.144165,933.443420 861.509766,933.822693 
	C860.969299,932.866028 860.671326,932.065063 860.145874,931.462646 
	C858.840820,929.966064 857.431824,928.560059 856.064575,927.117676 
	C854.989807,929.251709 853.700623,931.314209 852.953308,933.557312 
	C852.680969,934.374817 853.698914,935.622253 854.609314,937.207825 
M558.943359,949.230164 
	C558.943359,952.352600 558.943359,955.475098 558.943359,958.799683 
	C561.179871,958.799683 563.100159,958.799683 566.052612,958.799683 
	C566.052612,953.748779 566.052612,948.905823 566.052612,944.062805 
	C566.541382,943.946167 567.030151,943.829590 567.518860,943.712952 
	C572.424316,948.943665 577.329773,954.174377 582.304932,959.479431 
	C588.390259,953.653748 582.380432,950.523315 579.961182,946.659363 
	C580.901428,945.327637 581.742676,944.122314 582.597900,942.927002 
	C586.887329,936.931763 586.597412,934.106201 580.967102,929.452454 
	C579.547791,928.279297 578.120789,925.298584 575.864075,928.189087 
	C574.124878,930.416748 573.431580,932.907471 576.501404,935.022888 
	C580.197449,937.569885 579.231384,939.990540 575.634705,942.765076 
	C570.786438,937.453125 566.077271,932.293701 561.388916,927.156982 
	C557.617981,931.435181 557.005798,933.329407 559.709717,935.915955 
	C562.277954,938.372681 562.429871,940.347412 560.592407,943.198303 
	C559.650024,944.660461 559.516541,946.643982 558.943359,949.230164 
M833.694763,942.468994 
	C833.074646,944.693237 833.106567,947.592957 831.674072,948.975708 
	C829.761353,950.822021 826.644165,952.487244 824.173828,952.319763 
	C822.484314,952.205200 820.535461,949.037598 819.595581,946.851013 
	C818.799927,944.999817 819.411255,942.583801 819.173523,940.442871 
	C818.864197,937.656494 818.889221,934.622070 817.711060,932.212280 
	C816.828857,930.407654 814.273010,929.421204 812.462341,928.070496 
	C812.081116,930.643005 811.261963,933.246521 811.441406,935.779297 
	C811.622314,938.331970 812.951599,940.781372 813.490784,943.336609 
	C814.071106,946.087219 814.036987,948.984009 814.764404,951.684082 
	C816.788269,959.195618 822.601501,961.947571 829.752930,959.017029 
	C838.692444,955.353760 843.101318,938.965454 837.145081,931.378418 
	C834.741455,928.316772 831.480469,927.121521 827.835693,928.486938 
	C824.282288,929.818115 823.491760,932.969482 823.475281,937.549744 
	C829.109009,934.328918 833.006348,934.849976 833.694763,942.468994 
M734.521240,958.964172 
	C735.960693,958.964172 737.400146,958.964172 739.016541,958.964172 
	C739.016541,952.472778 738.970032,946.502991 739.054138,940.535156 
	C739.071777,939.279602 739.475891,936.978455 739.860107,936.944397 
	C743.113831,936.656250 746.523376,936.282715 749.626465,937.023071 
	C750.914978,937.330505 752.270569,940.237793 752.386719,942.040649 
	C752.743835,947.584961 752.516846,953.166931 752.516846,959.054993 
	C755.156616,958.928772 756.742798,958.852905 758.542542,958.766846 
	C758.542542,951.768982 758.621521,945.147461 758.520874,938.528687 
	C758.414856,931.556702 756.144897,929.446411 749.152466,929.156433 
	C743.487915,928.921570 737.831482,928.489441 730.836670,928.063538 
	C730.974182,930.012756 730.982239,932.683533 731.408630,935.285706 
	C731.699890,937.063538 733.007507,938.720276 733.110596,940.475159 
	C733.468079,946.560669 733.497742,952.665344 734.521240,958.964172 
M628.905396,927.839600 
	C626.876526,926.510498 625.232788,926.300415 624.452271,929.201538 
	C623.373108,933.213074 622.000793,937.158630 621.150635,941.215576 
	C620.114197,946.161804 622.557129,949.336121 627.575623,949.757629 
	C628.565430,949.840698 630.349609,948.979675 630.537109,948.241638 
	C630.876221,946.906128 630.724670,944.330200 630.018188,944.023743 
	C624.981018,941.838806 627.502869,938.856812 628.596863,935.935608 
	C639.120483,935.970215 640.444275,937.255432 640.460815,947.248535 
	C640.463806,949.078674 640.451904,950.908875 640.451477,952.739014 
	C640.450195,958.510315 640.451050,964.281677 640.451050,970.194397 
	C642.870117,970.194397 644.600037,970.194397 645.962463,970.194397 
	C645.962463,959.242310 646.119751,948.641296 645.888733,938.048706 
	C645.789734,933.506897 642.866455,930.833618 638.435913,929.924500 
	C635.511963,929.324402 632.574463,928.790710 628.905396,927.839600 
M798.148560,951.613037 
	C797.178101,950.427673 795.530212,949.326782 795.369751,948.040405 
	C794.961731,944.768921 795.254333,941.413940 795.202576,938.093384 
	C795.102417,931.671753 793.046814,929.674072 786.527222,929.169067 
	C783.005310,928.896179 779.509216,928.289734 775.106079,927.717529 
	C774.808167,929.557678 773.435303,932.497559 774.320435,934.370178 
	C774.995728,935.798645 778.505554,935.998291 780.807373,936.503052 
	C782.075745,936.781189 783.453491,936.552490 784.781860,936.566650 
	C787.770996,936.598511 789.199036,937.972839 789.454834,941.098450 
	C790.286621,951.260620 790.244995,951.394653 780.172485,951.435974 
	C773.795288,951.462219 773.656250,951.608887 773.760437,958.561035 
	C780.170166,958.561035 786.595703,958.570435 793.021301,958.558411 
	C799.235840,958.546692 799.236572,958.536194 798.148560,951.613037 
M482.985718,951.458191 
	C482.321869,950.380920 481.170685,949.340576 481.085938,948.219543 
	C480.836365,944.918396 481.055756,941.584534 481.007538,938.264709 
	C480.914673,931.875610 478.752167,929.711792 472.393127,929.164978 
	C468.728577,928.849854 465.089661,928.236816 461.267792,927.735413 
	C457.904633,934.664612 458.673370,936.369751 465.652466,936.547363 
	C475.377472,936.794861 475.377380,936.794739 475.177032,946.667664 
	C475.170288,946.999695 475.141968,947.334778 475.174683,947.663391 
	C475.451813,950.449036 474.187164,951.556030 471.418365,951.459290 
	C467.794403,951.332703 464.162750,951.428284 460.146576,951.428284 
	C459.755371,954.028748 459.432159,956.177307 459.074799,958.553040 
	C466.504700,958.553040 473.282349,958.596680 480.059143,958.538269 
	C484.869171,958.496765 485.869385,956.592773 482.985718,951.458191 
M430.572662,931.606018 
	C431.456268,932.814331 432.084473,934.456665 433.268921,935.153748 
	C437.746979,937.788757 440.120331,943.316345 437.966919,949.512024 
	C437.462311,950.963928 433.428894,951.182434 431.026459,951.990540 
	C430.727997,952.090942 430.475739,952.328552 430.061523,952.591919 
	C430.061523,954.544128 430.061523,956.574768 430.061523,958.310974 
	C434.897644,958.310974 439.315338,958.310974 444.232025,958.310974 
	C444.232025,952.476379 444.231079,947.041992 444.232239,941.607605 
	C444.234467,931.469604 442.903473,929.789673 432.369476,926.957275 
	C431.839447,928.244141 431.286407,929.586853 430.572662,931.606018 
M498.405334,936.342712 
	C500.728882,936.410950 503.071106,936.698608 505.372101,936.502319 
	C510.294434,936.082275 512.414978,938.137756 512.226868,943.090210 
	C512.032837,948.201782 512.183777,953.326416 512.183777,958.725586 
	C514.429077,958.725586 516.152405,958.725586 517.927002,958.725586 
	C517.927002,950.834900 518.057617,943.204529 517.875854,935.581543 
	C517.773804,931.299377 514.808899,929.620728 510.909424,929.232727 
	C506.420319,928.785889 501.930634,928.345032 497.040344,927.862061 
	C496.613678,930.284302 492.784027,933.298279 498.405334,936.342712 
M537.129272,928.380920 
	C535.693481,928.467896 533.024902,928.463013 533.010559,928.655823 
	C532.847351,930.848450 532.291565,934.385925 533.371582,935.041382 
	C536.719788,937.073059 537.122498,939.667175 537.019592,943.020691 
	C536.857849,948.289185 536.976685,953.566345 536.976685,959.150818 
	C539.412231,959.038879 541.153015,958.958801 543.020935,958.872925 
	C543.020935,951.525330 542.853088,944.704834 543.081604,937.897522 
	C543.227112,933.562561 541.918335,930.430786 537.129272,928.380920 
M409.392853,939.421997 
	C408.139801,942.437073 406.886749,945.452148 405.627472,948.482117 
	C408.320129,951.291687 410.466156,951.187256 412.033234,947.563293 
	C413.468781,944.243469 415.200836,940.991150 416.096252,937.526611 
	C416.491516,935.997131 415.681091,933.343689 414.475067,932.376831 
	C411.717865,930.166504 408.379761,928.680847 405.315857,926.922791 
	C401.527710,932.648621 401.794586,933.794739 407.075867,936.762817 
	C407.905792,937.229370 408.567017,937.996094 409.392853,939.421997 
z"/>
<path fill="#C3104F" opacity="1.000000" stroke="none" 
	d="
M704.137085,651.093628 
	C720.057373,647.192261 735.209900,648.684448 751.492676,655.179932 
	C750.738281,644.587097 750.514282,635.026062 749.220459,625.612000 
	C748.407288,619.695129 743.484680,616.893738 737.836670,615.874146 
	C723.624451,613.308655 710.866455,617.770691 698.583069,624.264648 
	C695.365662,625.965576 692.281250,627.917969 688.637390,630.045959 
	C686.344177,625.805725 684.160706,621.768433 681.817200,617.435120 
	C682.912048,616.546265 683.835693,615.624084 684.913330,614.947083 
	C702.161255,604.113037 720.613281,597.579163 741.266968,600.850708 
	C756.649536,603.287292 765.612000,613.198853 765.986755,628.933472 
	C766.613342,655.242065 766.402283,681.570679 766.538940,707.890869 
	C766.555176,711.028259 766.541077,714.165833 766.541077,717.654175 
	C761.127686,717.654175 756.219849,717.654175 750.835205,717.654175 
	C750.642883,715.322266 750.443970,712.909790 750.170410,709.591858 
	C748.347473,710.570068 746.986145,711.275024 745.648560,712.022339 
	C732.027832,719.632263 717.502502,722.014465 702.221802,719.105103 
	C686.354980,716.084229 676.555664,706.352539 674.227112,691.808655 
	C671.808777,676.703430 678.584473,663.197937 692.652222,655.669861 
	C696.146179,653.800110 700.031006,652.660706 704.137085,651.093628 
M723.106018,705.773987 
	C730.005737,703.029724 737.049377,700.591980 743.758972,697.442566 
	C748.968140,694.997437 751.539856,690.673828 750.736450,684.473389 
	C750.227905,680.548279 750.805664,676.493469 750.571289,672.515991 
	C750.486145,671.070862 749.850281,668.924866 748.801086,668.381348 
	C735.748169,661.618958 712.957825,658.638184 698.573181,668.316162 
	C690.778992,673.560120 687.837097,681.339722 689.420898,690.484741 
	C690.991211,699.552002 697.459106,704.164368 705.916504,705.569153 
	C711.231873,706.451904 716.796265,705.836121 723.106018,705.773987 
z"/>
<path fill="#C3104F" opacity="1.000000" stroke="none" 
	d="
M432.051575,632.042236 
	C431.869873,631.402954 431.642578,630.772766 431.513245,630.123047 
	C429.374756,619.379639 424.761963,615.482361 413.751190,615.134155 
	C401.191803,614.737000 389.824615,618.684204 379.035614,624.698181 
	C376.138428,626.313171 373.297638,628.029297 369.852020,630.036255 
	C367.538818,625.796265 365.278351,621.653015 362.752960,617.024109 
	C381.998077,604.478516 402.138000,596.785583 425.174103,601.307556 
	C437.389862,603.705383 445.263977,613.122009 446.983215,625.712891 
	C447.320312,628.181580 447.480499,630.693542 447.483459,633.185791 
	C447.514740,659.518066 447.497589,685.850403 447.493866,712.182678 
	C447.493591,713.974548 447.493835,715.766357 447.493835,717.779297 
	C442.116180,717.779297 437.339355,717.779297 432.219727,717.779297 
	C431.986725,715.248901 431.765717,712.849243 431.464478,709.578003 
	C429.522980,710.607910 428.012054,711.382080 426.526245,712.201721 
	C412.195404,720.107544 396.928406,722.262939 381.084381,718.663330 
	C366.328796,715.310974 357.129303,704.998718 355.263214,690.943604 
	C353.323334,676.332764 359.967651,662.992249 373.306824,655.986572 
	C390.894775,646.749329 409.119446,647.032410 427.564636,653.300293 
	C428.935913,653.766296 430.357330,654.084778 432.192596,653.870483 
	C432.437042,646.193481 432.244293,639.117859 432.051575,632.042236 
M380.455383,667.844238 
	C372.224030,673.311584 369.015228,681.010559 370.692688,690.640808 
	C372.252899,699.597717 378.593048,704.021301 386.811859,705.529419 
	C402.607300,708.427979 416.849945,704.492188 429.133636,694.127197 
	C430.565125,692.919373 431.596985,690.524841 431.717499,688.611511 
	C432.062134,683.138428 432.018188,677.620422 431.727173,672.141357 
	C431.648926,670.669189 430.474701,668.475342 429.242065,667.962585 
	C413.296234,661.328979 397.213654,659.203064 380.455383,667.844238 
z"/>
<path fill="#C4104F" opacity="1.000000" stroke="none" 
	d="
M1063.113892,710.126709 
	C1061.520020,710.750854 1059.840698,711.216736 1058.345215,712.023438 
	C1043.190430,720.199219 1027.252441,722.767029 1010.587463,718.014771 
	C996.179260,713.906067 988.082458,703.988281 986.738586,689.907532 
	C985.337830,675.230225 991.846191,662.693359 1004.748047,655.946960 
	C1021.309387,647.287170 1038.563232,647.093506 1056.143555,652.345703 
	C1058.200195,652.960144 1060.211060,653.727722 1062.249268,654.405762 
	C1062.382812,654.450134 1062.568848,654.336731 1062.850342,654.267029 
	C1062.850342,645.848267 1063.296631,637.367004 1062.717651,628.956299 
	C1062.198608,621.415955 1057.939941,617.257935 1050.459229,615.891541 
	C1035.324707,613.127197 1021.931763,618.322266 1009.035156,625.434448 
	C1006.566040,626.796021 1004.210999,628.364563 1001.513062,630.015198 
	C1000.682312,628.678467 999.858032,627.491638 999.173767,626.228943 
	C993.903015,616.502869 993.853943,616.389038 1003.897461,611.104858 
	C1019.365784,602.966431 1035.595337,598.034607 1053.325684,600.677002 
	C1065.658081,602.515076 1073.994995,609.243958 1077.751953,622.122192 
	C1078.192505,624.848267 1078.431030,626.889954 1078.490967,629.306274 
	C1078.209717,631.495361 1078.018921,633.309753 1078.017700,635.124329 
	C1077.999512,660.680298 1077.928833,686.236694 1078.096680,711.791565 
	C1078.120483,715.411499 1077.091309,716.803894 1073.498413,716.997742 
	C1065.401367,717.434509 1065.407715,717.553162 1063.113892,710.126709 
M1003.327209,694.757019 
	C1005.947510,700.250122 1010.417236,703.564636 1016.164429,705.003113 
	C1031.380005,708.811584 1045.119263,705.020386 1057.887085,696.536926 
	C1061.644531,694.040344 1063.553345,690.903564 1063.097168,686.120178 
	C1062.656250,681.496704 1063.191284,676.785828 1062.887939,672.140137 
	C1062.791992,670.670227 1061.720947,668.519897 1060.514771,667.980408 
	C1046.499023,661.710388 1032.016602,659.840332 1017.305603,665.156494 
	C1004.458557,669.799133 999.127991,681.043091 1003.327209,694.757019 
z"/>
<path fill="#C60D4F" opacity="1.000000" stroke="none" 
	d="
M603.861877,613.234192 
	C608.666199,622.606995 608.841553,632.807617 608.967285,642.956665 
	C609.245850,665.441467 609.337524,687.928589 609.500854,710.414795 
	C609.517578,712.717590 609.503113,715.020691 609.503113,717.660461 
	C604.091736,717.660461 599.182190,717.660461 593.485779,717.660461 
	C593.485779,715.739624 593.499634,713.811462 593.483704,711.883545 
	C593.282776,687.565796 592.888367,663.247742 592.931396,638.930420 
	C592.968445,618.005432 581.891235,613.801514 565.375244,616.713196 
	C554.901123,618.559692 545.365356,622.793457 536.075500,628.859985 
	C535.636047,629.089661 535.221558,629.064941 534.921143,629.352783 
	C534.414856,630.763000 534.030823,631.885254 534.029236,633.007996 
	C533.993896,658.232666 533.987000,683.457397 534.034363,708.682068 
	C534.037109,710.119080 534.548889,711.555237 534.882568,713.316650 
	C534.903992,714.077271 534.866577,714.513062 534.618469,715.149231 
	C531.090637,715.611267 527.774841,715.892578 524.455933,716.129028 
	C521.020874,716.373779 519.931213,714.756226 519.937073,711.346008 
	C520.023193,661.688843 520.012512,612.031494 519.974854,562.374146 
	C519.969910,555.835999 524.820251,557.478333 528.503723,557.015869 
	C532.453125,556.520020 534.157593,557.833862 534.087158,562.190796 
	C533.855347,576.517639 533.971130,590.850830 534.041382,605.181091 
	C534.050903,607.122375 534.562683,609.061157 535.009277,611.282288 
	C536.496765,611.078918 537.816833,610.594360 539.136902,610.109863 
	C539.136902,610.109863 539.045776,610.081238 539.427856,610.070068 
	C542.555542,608.718506 545.301147,607.378052 548.046814,606.037598 
	C548.046814,606.037598 548.007996,605.996582 548.398193,605.995239 
	C550.357239,605.441956 551.909180,604.834961 553.497559,604.346558 
	C568.483215,599.738892 583.386719,597.155334 597.771851,606.289185 
	C597.771851,606.289185 597.839417,606.192993 597.895630,606.430786 
	C598.282227,606.838562 598.612549,607.008667 598.942932,607.178711 
	C598.942932,607.178711 598.947266,607.056519 598.990845,607.316528 
	C599.341675,607.767578 599.648865,607.958557 599.956055,608.149536 
	C599.956055,608.149597 599.958679,608.041321 599.996704,608.304688 
	C600.337402,608.763672 600.639954,608.959351 600.942566,609.155029 
	C600.942566,609.155029 600.925964,609.070740 600.975464,609.371094 
	C601.579651,610.227661 602.134277,610.783813 602.688904,611.340027 
	C602.688904,611.340027 602.770752,611.206726 602.749939,611.492310 
	C603.106689,612.263306 603.484314,612.748779 603.861877,613.234192 
z"/>
<path fill="#C41050" opacity="1.000000" stroke="none" 
	d="
M835.154785,619.167786 
	C834.603210,613.869751 834.051697,608.571655 833.456970,602.859070 
	C845.589844,602.859070 856.828308,602.859070 868.755737,602.859070 
	C868.755737,609.139160 868.755737,615.311768 868.755737,621.484314 
	C877.843262,610.814636 887.403503,601.817261 901.664795,600.164978 
	C910.494385,599.141968 918.825500,601.157104 927.248169,605.561646 
	C925.465820,610.583191 923.715271,615.515076 921.889282,620.659668 
	C918.386902,619.435425 915.215454,618.010254 911.892883,617.222473 
	C900.108032,614.428223 890.251038,618.128662 881.958740,626.625061 
	C874.182495,634.592712 868.892456,643.087830 869.962585,655.305420 
	C871.135681,668.698547 870.419495,682.278442 870.115662,695.767761 
	C870.013184,700.316895 871.552124,701.384644 875.812866,701.290344 
	C887.470459,701.032104 899.137512,701.199463 910.800781,701.198303 
	C912.587585,701.198181 914.374390,701.198303 916.742920,701.198303 
	C916.742920,706.195190 916.742920,710.641235 916.268738,715.636169 
	C913.665588,716.446167 911.537292,716.927673 909.407532,716.933899 
	C889.595703,716.991760 869.783630,716.970459 849.971619,716.966797 
	C834.635254,716.963989 834.635254,716.960693 835.136841,701.484680 
	C835.136841,701.484680 835.113708,701.240723 835.557190,701.195801 
	C841.917236,701.150940 847.833740,701.150940 853.856201,701.150940 
	C853.856201,673.434753 853.856201,646.441284 853.856201,619.167786 
	C847.384766,619.167786 841.269775,619.167786 835.154785,619.167786 
z"/>
<path fill="#C40F4F" opacity="1.000000" stroke="none" 
	d="
M209.061081,716.909912 
	C209.061081,716.909912 208.874252,716.651367 208.911224,716.073730 
	C207.727020,709.326965 203.963074,703.138123 209.091461,697.018188 
	C209.180420,696.822205 209.269379,696.626282 209.801971,696.137756 
	C210.470520,695.501221 210.695480,695.157166 210.920425,694.813171 
	C210.920425,694.813171 210.934631,694.929932 211.200134,694.808960 
	C214.007187,691.190796 216.548752,687.693665 219.090332,684.196594 
	C219.209915,683.963806 219.329468,683.731018 219.911987,683.161133 
	C220.570831,682.526794 220.766678,682.229492 220.962524,681.932190 
	C220.962524,681.932190 221.000687,681.985718 221.273499,681.829712 
	C224.009949,678.391052 226.473602,675.108337 228.937271,671.825623 
	C228.937271,671.825623 228.938110,671.945923 229.196350,671.818970 
	C230.616241,670.069763 231.777908,668.447510 232.939590,666.825256 
	C232.939590,666.825256 232.939621,666.951477 233.164291,666.835876 
	C233.969193,665.727661 234.549423,664.734985 235.129639,663.742371 
	C235.129654,663.742371 235.247070,663.325195 235.711090,663.091064 
	C237.737793,660.813049 239.300476,658.769104 240.863159,656.725159 
	C240.863144,656.725159 240.861908,656.897888 241.024017,656.797241 
	C241.492172,656.105103 241.798218,655.513672 242.104248,654.922241 
	C242.179123,654.749573 242.253983,654.576965 242.822723,654.115723 
	C244.529999,652.170776 245.743408,650.514404 246.956818,648.858032 
	C246.956833,648.858032 246.963486,648.960754 247.146515,648.820923 
	C247.519852,648.375732 247.710159,648.070374 247.900452,647.765015 
	C247.900436,647.765015 247.887894,647.917664 248.148224,647.796448 
	C250.578445,644.713135 252.748337,641.751038 254.918213,638.788940 
	C254.918213,638.788940 254.909805,638.932068 255.135010,638.819458 
	C255.946747,637.699585 256.533264,636.692322 257.119751,635.685059 
	C257.119751,635.685059 257.278625,635.288208 257.750061,635.074951 
	C259.853210,632.596497 261.484924,630.331238 263.116669,628.065979 
	C263.194794,627.860229 263.272919,627.654541 263.880951,627.129761 
	C265.603790,625.193848 266.796692,623.577087 267.999207,621.982056 
	C268.008789,622.003784 267.961243,622.002686 268.182373,621.828125 
	C268.581268,621.325378 268.759064,620.997192 268.993561,620.364075 
	C267.652161,619.708618 266.255066,619.057617 264.855743,619.052734 
	C246.274811,618.987854 227.693558,619.013733 209.112396,619.016907 
	C209.112396,613.721619 209.112396,608.426331 209.112396,602.808594 
	C210.767563,602.703247 212.232071,602.530212 213.696732,602.528870 
	C235.998398,602.508240 258.300964,602.609375 280.600922,602.413147 
	C284.510162,602.378723 285.738983,603.911194 287.138062,607.324097 
	C290.134674,614.633789 288.595367,619.945374 283.571747,626.094849 
	C265.051270,648.766113 247.215439,671.996704 228.759888,695.477905 
	C228.229797,696.287537 228.061966,696.636108 227.894135,696.984619 
	C227.894119,696.984619 227.981277,696.979980 227.734161,697.038513 
	C227.334595,697.402405 227.182129,697.707703 227.029663,698.013000 
	C227.029648,698.013000 226.997223,698.001648 226.703445,698.215027 
	C226.039169,699.215027 225.668671,700.001648 224.981903,701.459717 
	C244.769302,701.459717 263.862396,701.459717 283.049561,701.792480 
	C283.621490,705.145691 283.906464,708.212708 284.621460,711.176025 
	C285.752380,715.862915 283.632416,717.033630 279.384155,717.013306 
	C255.943497,716.900818 232.502182,716.929565 209.061081,716.909912 
z"/>
<path fill="#C40D4E" opacity="1.000000" stroke="none" 
	d="
M782.996216,470.896088 
	C777.704346,470.896088 772.412476,470.896088 766.624512,470.896088 
	C766.624512,436.397583 766.624512,402.152283 766.624512,367.315796 
	C764.418579,367.196899 762.676025,367.022980 760.933289,367.021240 
	C741.120239,367.001556 721.306580,366.929779 701.494629,367.077332 
	C697.765320,367.105103 694.808960,366.316101 692.139038,363.583252 
	C688.780212,360.145111 685.060547,357.059479 681.090271,353.452576 
	C684.438965,349.790955 687.653809,346.275726 691.204773,342.442566 
	C691.540894,342.124603 691.845825,341.927460 691.845825,341.927460 
	C692.013794,341.981293 692.181824,342.035156 692.748779,342.390961 
	C694.108276,343.450287 695.068970,344.207733 696.029602,344.965149 
	C696.231079,345.232269 696.432556,345.499390 696.935608,346.073212 
	C697.402527,346.664703 697.649353,346.793732 697.977661,346.766968 
	C697.977661,346.766968 698.236328,347.038635 698.564026,347.341003 
	C699.230286,347.843597 699.568787,348.043884 699.907349,348.244171 
	C699.907349,348.244171 699.898560,348.097321 699.933350,348.367676 
	C700.287292,348.817627 700.606384,348.997192 700.925537,349.176788 
	C700.925537,349.176788 700.914307,349.098389 701.081543,349.462524 
	C702.314697,350.172943 703.380798,350.821564 704.446655,350.821136 
	C728.914062,350.811401 753.381470,350.730927 777.848877,350.663635 
	C778.305420,350.776764 778.761963,350.889893 779.606567,351.449554 
	C780.996155,359.587128 782.783508,367.270203 782.861877,374.970673 
	C783.187378,406.942963 782.997192,438.920471 782.996216,470.896088 
z"/>
<path fill="#C50D4F" opacity="1.000000" stroke="none" 
	d="
M457.869019,357.573273 
	C457.869019,357.573273 457.734344,357.801086 457.830322,358.325378 
	C458.282532,362.127960 458.940186,365.405487 458.948425,368.684692 
	C459.033783,402.722656 459.014496,436.760834 459.024292,470.798981 
	C459.024323,470.798981 458.845612,470.882355 458.389099,470.992157 
	C452.960968,471.138916 447.989349,471.175842 443.017761,471.212799 
	C443.017761,471.212799 442.912964,470.993073 442.776733,470.525085 
	C442.644470,437.283386 442.658173,404.509674 442.623260,371.735992 
	C442.621521,370.129059 442.194366,368.522583 441.632141,366.676483 
	C418.088623,366.379303 394.878296,366.321533 371.667999,366.263733 
	C371.667999,366.263733 371.789703,366.157379 371.720825,365.954163 
	C371.155579,365.485199 370.659210,365.219482 370.162872,364.953796 
	C368.527679,363.566833 366.892487,362.179871 364.957397,360.256165 
	C364.331543,359.509644 364.005554,359.299866 363.679565,359.090088 
	C363.405182,359.092590 363.182770,358.986328 362.830017,358.314270 
	C362.331024,357.618469 362.014374,357.379669 361.697723,357.140869 
	C361.697723,357.140900 361.882446,357.174225 361.752869,356.983673 
	C361.124756,356.513977 360.626221,356.234833 360.127655,355.955688 
	C360.127655,355.955688 360.039246,355.976990 359.900635,355.747314 
	C359.557922,355.288696 359.315704,355.111908 359.035339,354.987335 
	C358.690186,354.924591 358.411804,354.753326 358.106567,353.972412 
	C357.995239,353.293304 357.977539,353.115265 357.959808,352.937195 
	C357.959808,352.937195 357.995514,352.989410 358.190735,352.848633 
	C358.561554,352.402222 358.737213,352.096558 358.912842,351.790894 
	C358.912872,351.790924 358.914337,351.924774 359.151917,351.817627 
	C359.885406,351.057892 360.381287,350.405273 360.877167,349.752625 
	C360.877167,349.752625 360.899536,349.893890 361.082520,349.772339 
	C361.458313,349.334717 361.651062,349.018646 361.843842,348.702545 
	C361.843842,348.702545 361.858093,348.861786 362.045044,348.748871 
	C362.436554,348.321716 362.641144,348.007477 362.845703,347.693237 
	C362.845703,347.693237 362.866730,347.858978 363.048523,347.747223 
	C363.432800,347.320404 363.635284,347.005371 363.837769,346.690338 
	C363.837769,346.690338 363.834473,346.876648 364.028381,346.746887 
	C364.490051,346.089844 364.757782,345.562561 365.025513,345.035278 
	C365.025513,345.035278 365.000000,345.000000 365.317291,344.954773 
	C366.020782,344.480103 366.407013,344.050629 366.793213,343.621185 
	C366.793213,343.621185 366.687164,343.716278 367.072754,343.772552 
	C368.322388,343.873322 369.186401,343.917847 370.050415,343.962341 
	C370.050415,343.962341 370.007355,344.002411 370.146057,344.193054 
	C370.561493,344.574707 370.838196,344.765747 371.114899,344.956787 
	C371.114899,344.956787 371.036682,344.957764 371.160889,345.205811 
	C371.932617,345.933838 372.580170,346.413788 373.227722,346.893738 
	C373.227722,346.893738 373.094177,346.901001 373.200867,347.141846 
	C373.981384,347.857239 374.655212,348.331787 375.329041,348.806335 
	C375.329041,348.806335 375.154388,348.833679 375.262512,349.020081 
	C375.866333,349.475739 376.362061,349.745026 376.857758,350.014313 
	C376.857758,350.014313 376.993286,349.996124 377.154175,350.237000 
	C377.551819,350.684174 377.823395,350.821777 378.129791,350.890747 
	C403.741486,350.924286 429.353210,350.957825 455.451782,351.436707 
	C456.582092,353.779114 457.225555,355.676208 457.869019,357.573273 
z"/>
<path fill="#C50D4F" opacity="1.000000" stroke="none" 
	d="
M529.996582,359.970642 
	C529.864685,359.670593 529.663391,359.428040 529.048584,358.868378 
	C527.906311,357.894714 527.108215,357.295654 526.310181,356.696594 
	C526.310181,356.696594 526.043213,356.978241 526.031982,356.556396 
	C525.092651,355.357452 524.164429,354.580292 523.236267,353.803162 
	C526.660095,349.821533 530.083862,345.839935 533.330750,342.064087 
	C534.342041,342.442657 534.764282,342.464844 534.930054,342.682404 
	C541.102905,350.786011 549.640198,351.275146 558.933777,351.004486 
	C575.221924,350.530151 591.534424,350.949432 607.835144,350.806396 
	C611.048828,350.778198 612.806213,351.602295 613.207397,354.981110 
	C613.848999,360.384308 615.346313,365.756592 615.382385,371.149292 
	C615.591431,402.420929 615.478760,433.694702 615.474915,464.967773 
	C615.474670,466.768097 615.474854,468.568451 615.474854,470.637360 
	C609.770203,470.637360 604.527832,470.637360 599.092407,469.830505 
	C598.920227,436.328461 598.953491,403.633209 598.918579,370.938049 
	C598.917114,369.559204 598.280945,368.181000 597.596680,366.585297 
	C577.375366,366.275055 557.497864,366.182037 537.332031,365.957428 
	C535.385681,364.511841 533.727600,363.197845 532.069580,361.883881 
	C531.970825,361.581970 531.791565,361.339600 531.224976,360.808655 
	C530.610901,360.297241 530.303772,360.133942 529.996582,359.970642 
z"/>
<path fill="#C4104F" opacity="1.000000" stroke="none" 
	d="
M864.763367,362.085144 
	C860.410461,360.783997 856.448730,359.577484 851.884583,358.187500 
	C853.300232,353.109436 854.649353,348.269958 856.344543,342.189056 
	C878.714172,353.428680 902.389832,350.617737 926.107910,350.872986 
	C926.107910,356.270691 926.107910,361.312683 926.107910,367.003632 
	C918.587036,367.003632 911.153320,367.124786 903.726746,366.947388 
	C900.498718,366.870270 898.192139,367.739319 895.949402,370.253601 
	C882.340942,385.510498 879.341125,402.499329 887.767212,421.091858 
	C891.809143,430.010376 897.135437,438.341797 901.296997,447.212646 
	C904.707825,454.483398 907.255493,462.159058 910.550293,470.587463 
	C903.802856,470.587463 898.746887,470.587463 894.497803,470.587463 
	C886.965271,455.109253 879.212036,439.920166 872.126892,424.425598 
	C863.792480,406.199005 865.760925,388.488861 876.282715,371.592804 
	C877.225891,370.078308 878.088379,368.513580 879.276733,366.478210 
	C874.273804,364.955444 869.714172,363.567596 864.763367,362.085144 
z"/>
<path fill="#C41050" opacity="1.000000" stroke="none" 
	d="
M687.283875,399.126251 
	C692.419617,399.170471 697.555420,399.214661 703.186462,399.691040 
	C703.689453,423.689758 703.697205,447.256256 703.704956,470.822754 
	C698.459961,470.870880 693.214905,470.919006 687.495117,470.456482 
	C687.108154,446.339355 687.195984,422.732788 687.283875,399.126251 
z"/>
<path fill="#C60D4F" opacity="1.000000" stroke="none" 
	d="
M368.941986,399.469666 
	C369.410126,399.411255 369.878265,399.352844 370.804077,399.652924 
	C372.490723,399.828979 373.719696,399.646545 374.948700,399.464111 
	C375.416290,399.403107 375.883911,399.342133 376.783569,399.742035 
	C377.415771,400.836365 377.788544,401.469086 377.790985,402.103271 
	C377.875092,423.707245 377.965820,445.311615 377.847961,466.914764 
	C377.842377,467.936249 376.100708,469.298401 374.873810,469.859161 
	C373.770233,470.363586 372.262268,469.992767 370.932678,469.991486 
	C364.015228,469.984863 364.004913,469.983063 364.002594,463.292999 
	C363.996399,445.341064 364.154175,427.386871 363.892090,409.438751 
	C363.825806,404.900208 364.088501,401.202454 368.941986,399.469666 
z"/>
<path fill="#BE1951" opacity="1.000000" stroke="none" 
	d="
M681.120605,959.042725 
	C669.892151,962.155090 665.228027,958.927673 663.596130,947.826416 
	C662.959412,943.495056 660.947388,939.352417 660.438843,935.020813 
	C660.139771,932.473206 661.563538,929.723328 662.352722,926.489563 
	C669.195190,930.791687 667.359619,937.337402 669.383850,942.528748 
	C673.493042,942.085571 675.503174,940.361389 673.437988,936.357239 
	C671.446045,932.495239 673.012390,929.829712 675.522278,927.162903 
	C684.520996,933.711975 682.274231,941.589111 669.648499,948.455078 
	C669.649536,951.808716 671.532776,953.027832 674.685608,953.183716 
	C684.567505,953.672241 690.535706,945.483215 686.248657,936.647583 
	C684.174377,932.372559 685.607544,929.828491 688.505859,927.188110 
	C698.230896,933.868958 694.073059,952.205688 681.120605,959.042725 
z"/>
<path fill="#BE1951" opacity="1.000000" stroke="none" 
	d="
M854.368774,936.940674 
	C853.698914,935.622253 852.680969,934.374817 852.953308,933.557312 
	C853.700623,931.314209 854.989807,929.251709 856.064575,927.117676 
	C857.431824,928.560059 858.840820,929.966064 860.145874,931.462646 
	C860.671326,932.065063 860.969299,932.866028 861.509766,933.822693 
	C862.144165,933.443420 862.832703,933.255066 863.153748,932.804749 
	C866.051025,928.740234 869.963623,927.503296 874.564026,929.037659 
	C879.004761,930.518677 880.396423,934.488220 880.607178,938.567871 
	C880.940552,945.021179 880.695923,951.504333 880.695923,958.405029 
	C875.444397,958.405029 870.412781,958.405029 865.330994,958.405029 
	C864.379944,953.771118 865.660339,951.015320 870.736633,951.468079 
	C874.319336,951.787720 875.570496,950.201233 875.179321,946.818909 
	C875.026794,945.500061 875.464294,943.975586 874.946472,942.864929 
	C873.850342,940.514404 872.788757,937.233398 870.832886,936.400146 
	C867.402161,934.938660 864.728516,937.726013 863.636536,940.878174 
	C862.122314,945.249390 860.714355,949.786072 860.243896,954.353271 
	C859.791687,958.742615 858.173157,959.912598 853.479919,958.363708 
	C854.365723,954.417542 855.024597,950.350098 856.229248,946.451294 
	C857.311340,942.949036 857.214233,939.930847 854.368774,936.940674 
z"/>
<path fill="#BE1951" opacity="1.000000" stroke="none" 
	d="
M558.980408,948.811035 
	C559.516541,946.643982 559.650024,944.660461 560.592407,943.198303 
	C562.429871,940.347412 562.277954,938.372681 559.709717,935.915955 
	C557.005798,933.329407 557.617981,931.435181 561.388916,927.156982 
	C566.077271,932.293701 570.786438,937.453125 575.634705,942.765076 
	C579.231384,939.990540 580.197449,937.569885 576.501404,935.022888 
	C573.431580,932.907471 574.124878,930.416748 575.864075,928.189087 
	C578.120789,925.298584 579.547791,928.279297 580.967102,929.452454 
	C586.597412,934.106201 586.887329,936.931763 582.597900,942.927002 
	C581.742676,944.122314 580.901428,945.327637 579.961182,946.659363 
	C582.380432,950.523315 588.390259,953.653748 582.304932,959.479431 
	C577.329773,954.174377 572.424316,948.943665 567.518860,943.712952 
	C567.030151,943.829590 566.541382,943.946167 566.052612,944.062805 
	C566.052612,948.905823 566.052612,953.748779 566.052612,958.799683 
	C563.100159,958.799683 561.179871,958.799683 558.943359,958.799683 
	C558.943359,955.475098 558.943359,952.352600 558.980408,948.811035 
z"/>
<path fill="#BD184F" opacity="1.000000" stroke="none" 
	d="
M833.691650,942.025391 
	C833.006348,934.849976 829.109009,934.328918 823.475281,937.549744 
	C823.491760,932.969482 824.282288,929.818115 827.835693,928.486938 
	C831.480469,927.121521 834.741455,928.316772 837.145081,931.378418 
	C843.101318,938.965454 838.692444,955.353760 829.752930,959.017029 
	C822.601501,961.947571 816.788269,959.195618 814.764404,951.684082 
	C814.036987,948.984009 814.071106,946.087219 813.490784,943.336609 
	C812.951599,940.781372 811.622314,938.331970 811.441406,935.779297 
	C811.261963,933.246521 812.081116,930.643005 812.462341,928.070496 
	C814.273010,929.421204 816.828857,930.407654 817.711060,932.212280 
	C818.889221,934.622070 818.864197,937.656494 819.173523,940.442871 
	C819.411255,942.583801 818.799927,944.999817 819.595581,946.851013 
	C820.535461,949.037598 822.484314,952.205200 824.173828,952.319763 
	C826.644165,952.487244 829.761353,950.822021 831.674072,948.975708 
	C833.106567,947.592957 833.074646,944.693237 833.691650,942.025391 
z"/>
<path fill="#BD184F" opacity="1.000000" stroke="none" 
	d="
M734.086670,958.863464 
	C733.497742,952.665344 733.468079,946.560669 733.110596,940.475159 
	C733.007507,938.720276 731.699890,937.063538 731.408630,935.285706 
	C730.982239,932.683533 730.974182,930.012756 730.836670,928.063538 
	C737.831482,928.489441 743.487915,928.921570 749.152466,929.156433 
	C756.144897,929.446411 758.414856,931.556702 758.520874,938.528687 
	C758.621521,945.147461 758.542542,951.768982 758.542542,958.766846 
	C756.742798,958.852905 755.156616,958.928772 752.516846,959.054993 
	C752.516846,953.166931 752.743835,947.584961 752.386719,942.040649 
	C752.270569,940.237793 750.914978,937.330505 749.626465,937.023071 
	C746.523376,936.282715 743.113831,936.656250 739.860107,936.944397 
	C739.475891,936.978455 739.071777,939.279602 739.054138,940.535156 
	C738.970032,946.502991 739.016541,952.472778 739.016541,958.964172 
	C737.400146,958.964172 735.960693,958.964172 734.086670,958.863464 
z"/>
<path fill="#BD184F" opacity="1.000000" stroke="none" 
	d="
M629.274170,928.033447 
	C632.574463,928.790710 635.511963,929.324402 638.435913,929.924500 
	C642.866455,930.833618 645.789734,933.506897 645.888733,938.048706 
	C646.119751,948.641296 645.962463,959.242310 645.962463,970.194397 
	C644.600037,970.194397 642.870117,970.194397 640.451050,970.194397 
	C640.451050,964.281677 640.450195,958.510315 640.451477,952.739014 
	C640.451904,950.908875 640.463806,949.078674 640.460815,947.248535 
	C640.444275,937.255432 639.120483,935.970215 628.596863,935.935608 
	C627.502869,938.856812 624.981018,941.838806 630.018188,944.023743 
	C630.724670,944.330200 630.876221,946.906128 630.537109,948.241638 
	C630.349609,948.979675 628.565430,949.840698 627.575623,949.757629 
	C622.557129,949.336121 620.114197,946.161804 621.150635,941.215576 
	C622.000793,937.158630 623.373108,933.213074 624.452271,929.201538 
	C625.232788,926.300415 626.876526,926.510498 629.274170,928.033447 
z"/>
<path fill="#BD184F" opacity="1.000000" stroke="none" 
	d="
M798.471802,951.832336 
	C799.236572,958.536194 799.235840,958.546692 793.021301,958.558411 
	C786.595703,958.570435 780.170166,958.561035 773.760437,958.561035 
	C773.656250,951.608887 773.795288,951.462219 780.172485,951.435974 
	C790.244995,951.394653 790.286621,951.260620 789.454834,941.098450 
	C789.199036,937.972839 787.770996,936.598511 784.781860,936.566650 
	C783.453491,936.552490 782.075745,936.781189 780.807373,936.503052 
	C778.505554,935.998291 774.995728,935.798645 774.320435,934.370178 
	C773.435303,932.497559 774.808167,929.557678 775.106079,927.717529 
	C779.509216,928.289734 783.005310,928.896179 786.527222,929.169067 
	C793.046814,929.674072 795.102417,931.671753 795.202576,938.093384 
	C795.254333,941.413940 794.961731,944.768921 795.369751,948.040405 
	C795.530212,949.326782 797.178101,950.427673 798.471802,951.832336 
z"/>
<path fill="#BD184F" opacity="1.000000" stroke="none" 
	d="
M483.406616,951.536743 
	C485.869385,956.592773 484.869171,958.496765 480.059143,958.538269 
	C473.282349,958.596680 466.504700,958.553040 459.074799,958.553040 
	C459.432159,956.177307 459.755371,954.028748 460.146576,951.428284 
	C464.162750,951.428284 467.794403,951.332703 471.418365,951.459290 
	C474.187164,951.556030 475.451813,950.449036 475.174683,947.663391 
	C475.141968,947.334778 475.170288,946.999695 475.177032,946.667664 
	C475.377380,936.794739 475.377472,936.794861 465.652466,936.547363 
	C458.673370,936.369751 457.904633,934.664612 461.267792,927.735413 
	C465.089661,928.236816 468.728577,928.849854 472.393127,929.164978 
	C478.752167,929.711792 480.914673,931.875610 481.007538,938.264709 
	C481.055756,941.584534 480.836365,944.918396 481.085938,948.219543 
	C481.170685,949.340576 482.321869,950.380920 483.406616,951.536743 
z"/>
<path fill="#F6BEC4" opacity="1.000000" stroke="none" 
	d="
M518.948730,718.006653 
	C518.302856,715.978943 517.097412,713.952393 517.093079,711.923279 
	C516.987732,662.612061 517.012085,613.300537 517.008606,563.989075 
	C517.007874,553.995911 517.000732,553.917175 527.154846,554.070740 
	C529.674805,554.108887 532.184265,554.837769 534.360352,555.575439 
	C529.083618,555.901733 524.145081,555.901733 518.636841,555.901733 
	C518.636841,558.605896 518.636780,560.721130 518.636841,562.836304 
	C518.638245,612.741150 518.636475,662.646057 518.653992,712.550903 
	C518.654602,714.369568 518.846130,716.188049 518.948730,718.006653 
z"/>
<path fill="#BD184F" opacity="1.000000" stroke="none" 
	d="
M430.653015,931.267822 
	C431.286407,929.586853 431.839447,928.244141 432.369476,926.957275 
	C442.903473,929.789673 444.234467,931.469604 444.232239,941.607605 
	C444.231079,947.041992 444.232025,952.476379 444.232025,958.310974 
	C439.315338,958.310974 434.897644,958.310974 430.061523,958.310974 
	C430.061523,956.574768 430.061523,954.544128 430.061523,952.591919 
	C430.475739,952.328552 430.727997,952.090942 431.026459,951.990540 
	C433.428894,951.182434 437.462311,950.963928 437.966919,949.512024 
	C440.120331,943.316345 437.746979,937.788757 433.268921,935.153748 
	C432.084473,934.456665 431.456268,932.814331 430.653015,931.267822 
z"/>
<path fill="#BD184F" opacity="1.000000" stroke="none" 
	d="
M498.007416,936.254272 
	C492.784027,933.298279 496.613678,930.284302 497.040344,927.862061 
	C501.930634,928.345032 506.420319,928.785889 510.909424,929.232727 
	C514.808899,929.620728 517.773804,931.299377 517.875854,935.581543 
	C518.057617,943.204529 517.927002,950.834900 517.927002,958.725586 
	C516.152405,958.725586 514.429077,958.725586 512.183777,958.725586 
	C512.183777,953.326416 512.032837,948.201782 512.226868,943.090210 
	C512.414978,938.137756 510.294434,936.082275 505.372101,936.502319 
	C503.071106,936.698608 500.728882,936.410950 498.007416,936.254272 
z"/>
<path fill="#F6BEC4" opacity="1.000000" stroke="none" 
	d="
M441.965332,366.915894 
	C442.194366,368.522583 442.621521,370.129059 442.623260,371.735992 
	C442.658173,404.509674 442.644470,437.283386 442.655090,470.519836 
	C442.118469,469.055786 441.093567,467.130554 441.086945,465.201843 
	C440.983673,435.046143 441.013885,404.889984 441.008179,374.733948 
	C441.006897,368.015991 440.997772,368.006531 434.081818,368.004913 
	C415.588348,368.000580 397.094818,368.018738 378.601410,367.986511 
	C376.622223,367.983063 374.643524,367.706543 372.792786,367.291565 
	C395.935760,366.989563 418.950562,366.952728 441.965332,366.915894 
z"/>
<path fill="#AC1947" opacity="1.000000" stroke="none" 
	d="
M518.968628,717.996216 
	C518.846130,716.188049 518.654602,714.369568 518.653992,712.550903 
	C518.636475,662.646057 518.638245,612.741150 518.636841,562.836304 
	C518.636780,560.721130 518.636841,558.605896 518.636841,555.901733 
	C524.145081,555.901733 529.083618,555.901733 534.481689,555.948914 
	C534.969360,556.175781 534.997437,556.355530 535.024719,557.257568 
	C534.963196,575.653503 534.902527,593.327332 534.841858,611.001099 
	C534.562683,609.061157 534.050903,607.122375 534.041382,605.181091 
	C533.971130,590.850830 533.855347,576.517639 534.087158,562.190796 
	C534.157593,557.833862 532.453125,556.520020 528.503723,557.015869 
	C524.820251,557.478333 519.969910,555.835999 519.974854,562.374146 
	C520.012512,612.031494 520.023193,661.688843 519.937073,711.346008 
	C519.931213,714.756226 521.020874,716.373779 524.455933,716.129028 
	C527.774841,715.892578 531.090637,715.611267 534.685852,715.479370 
	C535.031494,716.050049 535.098999,716.491028 535.166565,716.931946 
	C535.119324,717.098083 535.072083,717.264221 534.508240,717.706421 
	C528.994629,717.997742 523.997498,718.012939 519.000427,718.028137 
	C519.000427,718.028137 518.988525,717.985840 518.968628,717.996216 
z"/>
<path fill="#AC1947" opacity="1.000000" stroke="none" 
	d="
M368.554993,399.375183 
	C364.088501,401.202454 363.825806,404.900208 363.892090,409.438751 
	C364.154175,427.386871 363.996399,445.341064 364.002594,463.292999 
	C364.004913,469.983063 364.015228,469.984863 370.932678,469.991486 
	C372.262268,469.992767 373.770233,470.363586 374.873810,469.859161 
	C376.100708,469.298401 377.842377,467.936249 377.847961,466.914764 
	C377.965820,445.311615 377.875092,423.707245 377.790985,402.103271 
	C377.788544,401.469086 377.415771,400.836365 377.130341,399.824646 
	C377.861206,400.486115 379.385742,401.523407 379.389404,402.565979 
	C379.468292,425.157166 379.377625,447.748932 378.662903,470.676422 
	C373.021759,470.974091 368.037354,470.935944 363.052979,470.897797 
	C363.052979,470.897797 363.030609,470.969482 363.020508,470.496643 
	C362.970154,446.696014 362.929901,423.368256 362.889618,400.040466 
	C364.649078,399.787231 366.408569,399.533997 368.554993,399.375183 
z"/>
<path fill="#BD184F" opacity="1.000000" stroke="none" 
	d="
M537.438477,928.588440 
	C541.918335,930.430786 543.227112,933.562561 543.081604,937.897522 
	C542.853088,944.704834 543.020935,951.525330 543.020935,958.872925 
	C541.153015,958.958801 539.412231,959.038879 536.976685,959.150818 
	C536.976685,953.566345 536.857849,948.289185 537.019592,943.020691 
	C537.122498,939.667175 536.719788,937.073059 533.371582,935.041382 
	C532.291565,934.385925 532.847351,930.848450 533.010559,928.655823 
	C533.024902,928.463013 535.693481,928.467896 537.438477,928.588440 
z"/>
<path fill="#BE1951" opacity="1.000000" stroke="none" 
	d="
M409.349548,939.023010 
	C408.567017,937.996094 407.905792,937.229370 407.075867,936.762817 
	C401.794586,933.794739 401.527710,932.648621 405.315857,926.922791 
	C408.379761,928.680847 411.717865,930.166504 414.475067,932.376831 
	C415.681091,933.343689 416.491516,935.997131 416.096252,937.526611 
	C415.200836,940.991150 413.468781,944.243469 412.033234,947.563293 
	C410.466156,951.187256 408.320129,951.291687 405.627472,948.482117 
	C406.886749,945.452148 408.139801,942.437073 409.349548,939.023010 
z"/>
<path fill="#ECA9B0" opacity="1.000000" stroke="none" 
	d="
M532.104187,362.239441 
	C533.727600,363.197845 535.385681,364.511841 537.668091,366.257202 
	C558.175110,366.726562 578.057800,366.764557 597.940491,366.802551 
	C598.280945,368.181000 598.917114,369.559204 598.918579,370.938049 
	C598.953491,403.633209 598.920227,436.328461 598.817261,469.479980 
	C598.480225,467.824036 598.006836,465.712158 598.003296,463.599518 
	C597.954224,433.965454 597.974548,404.331299 597.964417,374.697144 
	C597.962158,368.113434 597.818970,367.975739 591.263123,367.972137 
	C574.614746,367.962921 557.965759,367.892700 541.318420,368.027161 
	C536.975708,368.062225 534.036377,366.371246 532.104187,362.239441 
z"/>
<path fill="#F6BEC4" opacity="1.000000" stroke="none" 
	d="
M783.261475,470.590942 
	C782.997192,438.920471 783.187378,406.942963 782.861877,374.970673 
	C782.783508,367.270203 780.996155,359.587128 779.953857,351.514221 
	C781.268005,354.455994 783.775574,357.770844 783.800842,361.104462 
	C784.073120,397.021942 783.955994,432.942383 783.925354,468.862030 
	C783.924927,469.336731 783.665405,469.811218 783.261475,470.590942 
z"/>
<path fill="#F6BEC4" opacity="1.000000" stroke="none" 
	d="
M835.480347,619.395752 
	C841.269775,619.167786 847.384766,619.167786 853.856201,619.167786 
	C853.856201,646.441284 853.856201,673.434753 853.856201,701.150940 
	C847.833740,701.150940 841.917236,701.150940 835.549194,701.073547 
	C839.326172,700.667908 843.557190,700.057373 847.782227,700.096313 
	C851.493774,700.130493 853.108887,699.218933 853.077576,695.081665 
	C852.900330,671.676514 852.926147,648.269104 853.040649,624.863281 
	C853.058472,621.232849 851.952698,619.773438 848.204712,619.932800 
	C844.083618,620.107971 839.939758,619.749695 835.480347,619.395752 
z"/>
<path fill="#AC1947" opacity="1.000000" stroke="none" 
	d="
M209.024170,717.165894 
	C232.502182,716.929565 255.943497,716.900818 279.384155,717.013306 
	C283.632416,717.033630 285.752380,715.862915 284.621460,711.176025 
	C283.906464,708.212708 283.621490,705.145691 283.309204,701.678955 
	C283.645416,701.152710 283.816071,701.072754 283.986694,700.992859 
	C284.614594,701.987244 285.764191,702.973022 285.780823,703.977478 
	C285.855865,708.513062 285.610260,713.053833 284.749268,717.806763 
	C259.026093,717.992554 234.033844,717.964417 209.041595,717.936279 
	C209.023483,717.764832 209.005386,717.593323 209.024170,717.165894 
z"/>
<path fill="#F6BEC4" opacity="1.000000" stroke="none" 
	d="
M459.289490,470.509827 
	C459.014496,436.760834 459.033783,402.722656 458.948425,368.684692 
	C458.940186,365.405487 458.282532,362.127960 457.914856,358.427185 
	C458.595673,359.393372 459.889282,360.780579 459.892487,362.170776 
	C459.974487,397.876709 459.922607,433.582947 459.878540,469.289124 
	C459.878143,469.599762 459.667297,469.910156 459.289490,470.509827 
z"/>
<path fill="#AC1947" opacity="1.000000" stroke="none" 
	d="
M1063.065796,710.562134 
	C1065.407715,717.553162 1065.401367,717.434509 1073.498413,716.997742 
	C1077.091309,716.803894 1078.120483,715.411499 1078.096680,711.791565 
	C1077.928833,686.236694 1077.999512,660.680298 1078.017700,635.124329 
	C1078.018921,633.309753 1078.209717,631.495361 1078.602539,629.772095 
	C1078.927246,633.179688 1078.984863,636.496094 1078.993042,639.812561 
	C1079.056274,665.518982 1079.109985,691.225342 1079.166748,716.931763 
	C1074.042969,717.439270 1068.919189,717.946777 1063.017700,718.531372 
	C1063.017700,715.473145 1063.017700,713.235352 1063.065796,710.562134 
z"/>
<path fill="#AC1947" opacity="1.000000" stroke="none" 
	d="
M834.767700,701.640015 
	C834.635254,716.960693 834.635254,716.963989 849.971619,716.966797 
	C869.783630,716.970459 889.595703,716.991760 909.407532,716.933899 
	C911.537292,716.927673 913.665588,716.446167 916.171875,716.092773 
	C916.629028,716.383728 916.708923,716.767029 916.378479,717.519043 
	C888.668518,717.889587 861.368896,717.891418 834.069214,717.893250 
	C834.179016,712.527283 834.288757,707.161255 834.767700,701.640015 
z"/>
<path fill="#F6BEC4" opacity="1.000000" stroke="none" 
	d="
M1079.393799,716.594604 
	C1079.109985,691.225342 1079.056274,665.518982 1078.993042,639.812561 
	C1078.984863,636.496094 1078.927246,633.179688 1078.781006,629.397461 
	C1078.431030,626.889954 1078.192505,624.848267 1077.969604,622.413208 
	C1078.651978,623.823364 1079.893188,625.624573 1079.900146,627.430542 
	C1080.012695,656.555847 1079.970215,685.681763 1079.945801,714.807495 
	C1079.945435,715.290894 1079.733887,715.774109 1079.393799,716.594604 
z"/>
<path fill="#F6BEC4" opacity="1.000000" stroke="none" 
	d="
M535.393677,716.594849 
	C535.098999,716.491028 535.031494,716.050049 534.896545,715.278992 
	C534.866577,714.513062 534.903992,714.077271 534.952148,712.851562 
	C534.974304,709.079468 534.987793,706.097168 534.996887,703.114929 
	C535.072205,678.431580 535.146729,653.748291 535.221558,629.064941 
	C535.221558,629.064941 535.636047,629.089661 535.842285,629.117676 
	C536.033142,656.207153 536.025574,683.268555 535.985962,710.329956 
	C535.983032,712.306030 535.747986,714.281799 535.393677,716.594849 
z"/>
<path fill="#F6BEC4" opacity="1.000000" stroke="none" 
	d="
M834.326660,718.166931 
	C861.368896,717.891418 888.668518,717.889587 916.419434,717.811279 
	C915.027588,718.168274 913.186096,718.971008 911.341187,718.978882 
	C890.462463,719.068054 869.583191,719.070923 848.704285,719.008423 
	C843.997070,718.994385 839.290833,718.638855 834.326660,718.166931 
z"/>
<path fill="#F6BEC4" opacity="1.000000" stroke="none" 
	d="
M777.500000,350.474823 
	C753.381470,350.730927 728.914062,350.811401 704.446655,350.821136 
	C703.380798,350.821564 702.314697,350.172943 701.046204,349.480469 
	C724.291504,349.419800 747.739380,349.699951 771.187012,350.000488 
	C773.175903,350.025970 775.163147,350.187622 777.500000,350.474823 
z"/>
<path fill="#F6BEC4" opacity="1.000000" stroke="none" 
	d="
M597.768311,605.926758 
	C583.386719,597.155334 568.483215,599.738892 553.497559,604.346558 
	C551.909180,604.834961 550.357239,605.441956 548.406860,606.021973 
	C551.874695,604.363525 555.575867,601.979980 559.601746,601.125122 
	C570.485107,598.814209 581.535889,597.152222 592.316528,601.714905 
	C594.317261,602.561707 595.957886,604.259399 597.768311,605.926758 
z"/>
<path fill="#F6BEC4" opacity="1.000000" stroke="none" 
	d="
M209.345734,718.217285 
	C234.033844,717.964417 259.026093,717.992554 284.480103,718.062378 
	C283.691895,718.413696 282.442535,718.990417 281.191864,718.993286 
	C258.309692,719.046265 235.427368,719.037048 212.545135,719.006958 
	C211.579834,719.005676 210.614960,718.675293 209.345734,718.217285 
z"/>
<path fill="#F6BEC4" opacity="1.000000" stroke="none" 
	d="
M704.031738,470.577362 
	C703.697205,447.256256 703.689453,423.689758 703.626404,399.681274 
	C704.050598,400.379456 704.944763,401.518250 704.948547,402.659973 
	C705.021057,424.598358 704.994080,446.537109 704.952576,468.475708 
	C704.951416,469.094818 704.565186,469.713226 704.031738,470.577362 
z"/>
<path fill="#F6BEC4" opacity="1.000000" stroke="none" 
	d="
M686.967773,399.391083 
	C687.195984,422.732788 687.108154,446.339355 687.034546,470.397614 
	C686.701660,469.622925 686.055542,468.397369 686.052063,467.170013 
	C685.991150,445.616394 686.000610,424.062531 686.036621,402.508759 
	C686.038208,401.557495 686.437561,400.606873 686.967773,399.391083 
z"/>
<path fill="#F6BEC4" opacity="1.000000" stroke="none" 
	d="
M362.654602,400.375549 
	C362.929901,423.368256 362.970154,446.696014 363.056335,470.485413 
	C362.736084,469.726013 362.054016,468.505859 362.050690,467.283905 
	C361.992401,445.737213 362.013458,424.190247 362.040039,402.643402 
	C362.040833,401.998962 362.287567,401.354858 362.654602,400.375549 
z"/>
<path fill="#AC1947" opacity="1.000000" stroke="none" 
	d="
M441.632141,366.676483 
	C418.950562,366.952728 395.935760,366.989563 372.452240,367.055420 
	C371.983490,367.084442 371.767303,366.695831 371.717651,366.479797 
	C394.878296,366.321533 418.088623,366.379303 441.632141,366.676483 
z"/>
<path fill="#F6BEC4" opacity="1.000000" stroke="none" 
	d="
M209.419891,619.276855 
	C227.693558,619.013733 246.274811,618.987854 264.855743,619.052734 
	C266.255066,619.057617 267.652161,619.708618 268.756226,620.526245 
	C268.295166,621.329773 268.128204,621.666199 267.961243,622.002686 
	C267.961243,622.002686 268.008789,622.003784 267.741943,622.058838 
	C267.308105,622.178223 267.141144,622.242493 266.974213,622.306702 
	C265.235535,621.537476 263.504089,620.119995 261.757019,620.100403 
	C246.211349,619.926453 230.662903,620.014648 215.115372,619.979614 
	C213.319046,619.975525 211.523361,619.691162 209.419891,619.276855 
z"/>
<path fill="#F6BEC4" opacity="1.000000" stroke="none" 
	d="
M283.660797,700.738647 
	C283.816071,701.072754 283.645416,701.152710 283.215149,701.346191 
	C263.862396,701.459717 244.769302,701.459717 224.981903,701.459717 
	C225.668671,700.001648 226.039169,699.215027 226.715057,698.228149 
	C228.694916,698.686035 230.363968,699.899353 232.044662,699.915649 
	C247.335617,700.064636 262.628632,699.989075 277.920929,700.027283 
	C279.725952,700.031799 281.530273,700.325012 283.660797,700.738647 
z"/>
<path fill="#F6BEC4" opacity="1.000000" stroke="none" 
	d="
M535.009277,611.282288 
	C534.902527,593.327332 534.963196,575.653503 535.095581,557.521057 
	C535.444824,558.996216 535.953369,560.928833 535.963013,562.864014 
	C536.032410,576.827515 535.919983,590.792542 536.103333,604.754028 
	C536.126343,606.505981 537.540466,608.239563 538.723511,610.045776 
	C537.816833,610.594360 536.496765,611.078918 535.009277,611.282288 
z"/>
<path fill="#AC1947" opacity="1.000000" stroke="none" 
	d="
M208.837524,697.125610 
	C203.963074,703.138123 207.727020,709.326965 208.934845,715.916016 
	C207.625198,712.482239 205.638092,708.689575 205.289795,704.751953 
	C205.078354,702.361511 207.399933,699.746948 208.837524,697.125610 
z"/>
<path fill="#F6BEC4" opacity="1.000000" stroke="none" 
	d="
M519.119568,718.388062 
	C523.997498,718.012939 528.994629,717.997742 534.448364,717.958496 
	C529.834290,721.122009 524.555176,720.294128 519.119568,718.388062 
z"/>
<path fill="#AC1947" opacity="1.000000" stroke="none" 
	d="
M218.848816,684.293457 
	C216.548752,687.693665 214.007187,691.190796 211.141357,694.811157 
	C213.413818,691.419678 216.010559,687.904968 218.848816,684.293457 
z"/>
<path fill="#F6BEC4" opacity="1.000000" stroke="none" 
	d="
M443.127197,471.532288 
	C447.989349,471.175842 452.960968,471.138916 458.378296,471.090149 
	C458.330963,471.650909 457.817780,472.735291 457.347809,472.716888 
	C452.640015,472.532379 447.939331,472.166534 443.127197,471.532288 
z"/>
<path fill="#AC1947" opacity="1.000000" stroke="none" 
	d="
M228.640503,671.977722 
	C226.473602,675.108337 224.009949,678.391052 221.241913,681.820740 
	C223.406250,678.688416 225.874985,675.409119 228.640503,671.977722 
z"/>
<path fill="#AC1947" opacity="1.000000" stroke="none" 
	d="
M431.975830,632.501221 
	C432.244293,639.117859 432.437042,646.193481 432.396820,653.603882 
	C432.075958,646.945801 431.988037,639.952942 431.975830,632.501221 
z"/>
<path fill="#AC1947" opacity="1.000000" stroke="none" 
	d="
M254.613434,638.931274 
	C252.748337,641.751038 250.578445,644.713135 248.072754,647.783325 
	C249.927521,644.952209 252.118073,642.012939 254.613434,638.931274 
z"/>
<path fill="#AC1947" opacity="1.000000" stroke="none" 
	d="
M262.876465,628.193115 
	C261.484924,630.331238 259.853210,632.596497 257.939941,634.976929 
	C259.317688,632.834839 260.976990,630.577515 262.876465,628.193115 
z"/>
<path fill="#F6BEC4" opacity="1.000000" stroke="none" 
	d="
M547.639282,606.022339 
	C545.301147,607.378052 542.555542,608.718506 539.453186,610.110596 
	C541.808228,608.777100 544.519958,607.392090 547.639282,606.022339 
z"/>
<path fill="#F6BEC4" opacity="1.000000" stroke="none" 
	d="
M363.354370,471.179474 
	C368.037354,470.935944 373.021759,470.974091 378.463654,471.035950 
	C373.832703,471.193481 368.744202,471.327301 363.354370,471.179474 
z"/>
<path fill="#AC1947" opacity="1.000000" stroke="none" 
	d="
M240.557465,656.855713 
	C239.300476,658.769104 237.737793,660.813049 235.889984,662.968750 
	C237.153824,661.049133 238.702789,659.017700 240.557465,656.855713 
z"/>
<path fill="#AC1947" opacity="1.000000" stroke="none" 
	d="
M266.877747,622.579468 
	C267.141144,622.242493 267.308105,622.178223 267.732361,622.037109 
	C266.796692,623.577087 265.603790,625.193848 264.153564,626.943604 
	C264.857971,625.668457 265.819611,624.260376 266.877747,622.579468 
z"/>
<path fill="#AC1947" opacity="1.000000" stroke="none" 
	d="
M232.639984,666.968872 
	C231.777908,668.447510 230.616241,670.069763 229.136322,671.815186 
	C229.992172,670.329773 231.166275,668.721130 232.639984,666.968872 
z"/>
<path fill="#AC1947" opacity="1.000000" stroke="none" 
	d="
M246.669281,648.993896 
	C245.743408,650.514404 244.529999,652.170776 243.053741,653.953552 
	C243.987839,652.429871 245.184799,650.779846 246.669281,648.993896 
z"/>
<path fill="#F6BEC4" opacity="1.000000" stroke="none" 
	d="
M457.897644,357.138489 
	C457.225555,355.676208 456.582092,353.779114 455.906952,351.516418 
	C456.558929,353.001770 457.242615,354.852753 457.897644,357.138489 
z"/>
<path fill="#AC1947" opacity="1.000000" stroke="none" 
	d="
M374.563843,399.374084 
	C373.719696,399.646545 372.490723,399.828979 371.149567,399.741028 
	C372.084625,399.408447 373.131805,399.346252 374.563843,399.374084 
z"/>
<path fill="#ECA9B0" opacity="1.000000" stroke="none" 
	d="
M523.227783,354.155090 
	C524.164429,354.580292 525.092651,355.357452 526.158203,356.409241 
	C525.270203,355.958252 524.244751,355.232635 523.227783,354.155090 
z"/>
<path fill="#AC1947" opacity="1.000000" stroke="none" 
	d="
M256.878174,635.838013 
	C256.533264,636.692322 255.946747,637.699585 255.063980,638.809692 
	C255.390686,637.938721 256.013641,636.964844 256.878174,635.838013 
z"/>
<path fill="#AC1947" opacity="1.000000" stroke="none" 
	d="
M234.886169,663.888428 
	C234.549423,664.734985 233.969193,665.727661 233.101288,666.831970 
	C233.423309,665.973938 234.033005,665.004150 234.886169,663.888428 
z"/>
<path fill="#F6BEC4" opacity="1.000000" stroke="none" 
	d="
M696.004272,344.600220 
	C695.068970,344.207733 694.108276,343.450287 693.011719,342.420715 
	C693.910217,342.844147 694.944641,343.539703 696.004272,344.600220 
z"/>
<path fill="#AC1947" opacity="1.000000" stroke="none" 
	d="
M369.892822,343.689880 
	C369.186401,343.917847 368.322388,343.873322 367.034912,343.712219 
	C367.652740,343.536224 368.694000,343.476807 369.892822,343.689880 
z"/>
<path fill="#ECA9B0" opacity="1.000000" stroke="none" 
	d="
M526.297058,357.044586 
	C527.108215,357.295654 527.906311,357.894714 528.831177,358.769623 
	C528.066650,358.494507 527.175293,357.943542 526.297058,357.044586 
z"/>
<path fill="#F6BEC4" opacity="1.000000" stroke="none" 
	d="
M602.714722,610.995728 
	C602.134277,610.783813 601.579651,610.227661 600.934692,609.384338 
	C601.476379,609.615295 602.108459,610.133301 602.714722,610.995728 
z"/>
<path fill="#AC1947" opacity="1.000000" stroke="none" 
	d="
M241.874802,655.026184 
	C241.798218,655.513672 241.492172,656.105103 240.938141,656.787964 
	C241.008560,656.296326 241.326950,655.713257 241.874802,655.026184 
z"/>
<path fill="#AC1947" opacity="1.000000" stroke="none" 
	d="
M375.213379,348.514130 
	C374.655212,348.331787 373.981384,347.857239 373.204224,347.075073 
	C373.766510,347.252258 374.432129,347.737091 375.213379,348.514130 
z"/>
<path fill="#AC1947" opacity="1.000000" stroke="none" 
	d="
M360.590485,349.875916 
	C360.381287,350.405273 359.885406,351.057892 359.085205,351.812622 
	C359.288544,351.276215 359.796173,350.637695 360.590485,349.875916 
z"/>
<path fill="#AC1947" opacity="1.000000" stroke="none" 
	d="
M373.111938,346.607605 
	C372.580170,346.413788 371.932617,345.933838 371.163208,345.166779 
	C371.692932,345.360260 372.344543,345.840881 373.111938,346.607605 
z"/>
<path fill="#F6BEC4" opacity="1.000000" stroke="none" 
	d="
M603.848083,612.906311 
	C603.484314,612.748779 603.106689,612.263306 602.676880,611.464417 
	C603.027893,611.626770 603.431091,612.102600 603.848083,612.906311 
z"/>
<path fill="#AC1947" opacity="1.000000" stroke="none" 
	d="
M360.272278,356.201599 
	C360.626221,356.234833 361.124756,356.513977 361.726685,357.073792 
	C361.359009,357.052124 360.887970,356.749817 360.272278,356.201599 
z"/>
<path fill="#AC1947" opacity="1.000000" stroke="none" 
	d="
M210.713684,694.887695 
	C210.695480,695.157166 210.470520,695.501221 210.065033,695.950623 
	C210.091949,695.691467 210.299438,695.326843 210.713684,694.887695 
z"/>
<path fill="#AC1947" opacity="1.000000" stroke="none" 
	d="
M376.730103,349.759491 
	C376.362061,349.745026 375.866333,349.475739 375.260406,348.931732 
	C375.634277,348.939545 376.118378,349.222107 376.730103,349.759491 
z"/>
<path fill="#AC1947" opacity="1.000000" stroke="none" 
	d="
M364.750549,345.158936 
	C364.757782,345.562561 364.490051,346.089844 363.935974,346.734955 
	C363.924957,346.329376 364.200256,345.805969 364.750549,345.158936 
z"/>
<path fill="#AC1947" opacity="1.000000" stroke="none" 
	d="
M366.497925,343.674316 
	C366.407013,344.050629 366.020782,344.480103 365.334961,344.967499 
	C365.424469,344.592773 365.813568,344.160095 366.497925,343.674316 
z"/>
<path fill="#AC1947" opacity="1.000000" stroke="none" 
	d="
M220.780975,682.000000 
	C220.766678,682.229492 220.570831,682.526794 220.228012,682.928345 
	C220.253845,682.710938 220.426651,682.389343 220.780975,682.000000 
z"/>
<path fill="#AC1947" opacity="1.000000" stroke="none" 
	d="
M370.291718,365.210632 
	C370.659210,365.219482 371.155579,365.485199 371.766602,366.020721 
	C371.394379,366.016174 370.907471,365.741821 370.291718,365.210632 
z"/>
<path fill="#F6BEC4" opacity="1.000000" stroke="none" 
	d="
M691.759033,341.822876 
	C691.845825,341.927460 691.540894,342.124603 691.362671,342.148315 
	C691.198792,341.825104 691.361389,341.673859 691.759033,341.822876 
z"/>
<path fill="#AC1947" opacity="1.000000" stroke="none" 
	d="
M361.789825,357.433777 
	C362.014374,357.379669 362.331024,357.618469 362.759674,358.137451 
	C362.541748,358.187317 362.211853,357.956970 361.789825,357.433777 
z"/>
<path fill="#AC1947" opacity="1.000000" stroke="none" 
	d="
M371.017426,344.708862 
	C370.838196,344.765747 370.561493,344.574707 370.154663,344.164978 
	C370.323029,344.117828 370.621490,344.289368 371.017426,344.708862 
z"/>
<path fill="#F6BEC4" opacity="1.000000" stroke="none" 
	d="
M600.823486,608.914490 
	C600.639954,608.959351 600.337402,608.763672 599.942627,608.306396 
	C600.135071,608.254517 600.419739,608.464233 600.823486,608.914490 
z"/>
<path fill="#F6BEC4" opacity="1.000000" stroke="none" 
	d="
M599.829529,607.910217 
	C599.648865,607.958557 599.341675,607.767578 598.929810,607.318359 
	C599.117737,607.263733 599.410400,607.467285 599.829529,607.910217 
z"/>
<path fill="#F6BEC4" opacity="1.000000" stroke="none" 
	d="
M697.863403,346.601410 
	C697.649353,346.793732 697.402527,346.664703 697.171021,346.170929 
	C697.354248,346.072906 697.569031,346.230865 697.863403,346.601410 
z"/>
<path fill="#AC1947" opacity="1.000000" stroke="none" 
	d="
M363.556824,346.780762 
	C363.635284,347.005371 363.432800,347.320404 362.964966,347.747864 
	C362.891724,347.530579 363.083801,347.200897 363.556824,346.780762 
z"/>
<path fill="#F6BEC4" opacity="1.000000" stroke="none" 
	d="
M598.809326,606.936035 
	C598.612549,607.008667 598.282227,606.838562 597.842285,606.406128 
	C598.046997,606.326843 598.361389,606.510071 598.809326,606.936035 
z"/>
<path fill="#F6BEC4" opacity="1.000000" stroke="none" 
	d="
M699.760498,347.982971 
	C699.568787,348.043884 699.230286,347.843597 698.747925,347.377747 
	C698.940552,347.315369 699.277100,347.518585 699.760498,347.982971 
z"/>
<path fill="#AC1947" opacity="1.000000" stroke="none" 
	d="
M362.562805,347.779846 
	C362.641144,348.007477 362.436554,348.321716 361.965149,348.745880 
	C361.892212,348.526031 362.086060,348.196259 362.562805,347.779846 
z"/>
<path fill="#F6BEC4" opacity="1.000000" stroke="none" 
	d="
M700.796265,348.935791 
	C700.606384,348.997192 700.287292,348.817627 699.860718,348.379272 
	C700.057800,348.311890 700.362427,348.503326 700.796265,348.935791 
z"/>
<path fill="#AC1947" opacity="1.000000" stroke="none" 
	d="
M361.568359,348.797882 
	C361.651062,349.018646 361.458313,349.334717 361.011139,349.776215 
	C360.935425,349.565491 361.114136,349.229370 361.568359,348.797882 
z"/>
<path fill="#AC1947" opacity="1.000000" stroke="none" 
	d="
M247.634857,647.867432 
	C247.710159,648.070374 247.519852,648.375732 247.095062,648.821472 
	C247.030121,648.631226 247.199692,648.300537 247.634857,647.867432 
z"/>
<path fill="#AC1947" opacity="1.000000" stroke="none" 
	d="
M378.001465,350.690979 
	C377.823395,350.821777 377.551819,350.684174 377.163086,350.304810 
	C377.344452,350.141357 377.631805,350.261200 378.001465,350.690979 
z"/>
<path fill="#ECA9B0" opacity="1.000000" stroke="none" 
	d="
M530.127075,360.193115 
	C530.303772,360.133942 530.610901,360.297241 531.018738,360.708679 
	C530.832092,360.776398 530.544800,360.595978 530.127075,360.193115 
z"/>
<path fill="#AC1947" opacity="1.000000" stroke="none" 
	d="
M358.651489,351.894043 
	C358.737213,352.096558 358.561554,352.402222 358.159119,352.849274 
	C358.084900,352.659546 358.237518,352.328369 358.651489,351.894043 
z"/>
<path fill="#AC1947" opacity="1.000000" stroke="none" 
	d="
M357.748535,353.027222 
	C357.977539,353.115265 357.995239,353.293304 358.015137,353.739990 
	C357.857330,353.711487 357.697296,353.414337 357.748535,353.027222 
z"/>
<path fill="#AC1947" opacity="1.000000" stroke="none" 
	d="
M363.812683,359.355835 
	C364.005554,359.299866 364.331543,359.509644 364.800232,359.977417 
	C364.610535,360.030762 364.278137,359.826172 363.812683,359.355835 
z"/>
<path fill="#AC1947" opacity="1.000000" stroke="none" 
	d="
M359.118378,355.214600 
	C359.315704,355.111908 359.557922,355.288696 359.892029,355.702698 
	C359.668091,355.887085 359.394562,355.738495 359.118378,355.214600 
z"/>
<path fill="#F6BEC4" opacity="1.000000" stroke="none" 
	d="
M227.233917,697.869873 
	C227.182129,697.707703 227.334595,697.402405 227.730499,696.994995 
	C227.865982,697.216248 227.687408,697.494141 227.233917,697.869873 
z"/>
<path fill="#F6BEC4" opacity="1.000000" stroke="none" 
	d="
M228.132355,696.817383 
	C228.061966,696.636108 228.229797,696.287537 228.649597,695.783936 
	C228.724564,695.969360 228.547562,696.309753 228.132355,696.817383 
z"/>
<path fill="#DCC9BD" opacity="1.000000" stroke="none" 
	d="
M722.677490,705.833313 
	C716.796265,705.836121 711.231873,706.451904 705.916504,705.569153 
	C697.459106,704.164368 690.991211,699.552002 689.420898,690.484741 
	C687.837097,681.339722 690.778992,673.560120 698.573181,668.316162 
	C712.957825,658.638184 735.748169,661.618958 748.801086,668.381348 
	C749.850281,668.924866 750.486145,671.070862 750.571289,672.515991 
	C750.805664,676.493469 750.227905,680.548279 750.736450,684.473389 
	C751.539856,690.673828 748.968140,694.997437 743.758972,697.442566 
	C737.049377,700.591980 730.005737,703.029724 722.677490,705.833313 
z"/>
<path fill="#DCC9BD" opacity="1.000000" stroke="none" 
	d="
M380.763062,667.644165 
	C397.213654,659.203064 413.296234,661.328979 429.242065,667.962585 
	C430.474701,668.475342 431.648926,670.669189 431.727173,672.141357 
	C432.018188,677.620422 432.062134,683.138428 431.717499,688.611511 
	C431.596985,690.524841 430.565125,692.919373 429.133636,694.127197 
	C416.849945,704.492188 402.607300,708.427979 386.811859,705.529419 
	C378.593048,704.021301 372.252899,699.597717 370.692688,690.640808 
	C369.015228,681.010559 372.224030,673.311584 380.763062,667.644165 
z"/>
<path fill="#DCC9BD" opacity="1.000000" stroke="none" 
	d="
M1003.187195,694.381165 
	C999.127991,681.043091 1004.458557,669.799133 1017.305603,665.156494 
	C1032.016602,659.840332 1046.499023,661.710388 1060.514771,667.980408 
	C1061.720947,668.519897 1062.791992,670.670227 1062.887939,672.140137 
	C1063.191284,676.785828 1062.656250,681.496704 1063.097168,686.120178 
	C1063.553345,690.903564 1061.644531,694.040344 1057.887085,696.536926 
	C1045.119263,705.020386 1031.380005,708.811584 1016.164429,705.003113 
	C1010.417236,703.564636 1005.947510,700.250122 1003.187195,694.381165 
z"/>
<path fill="#AC1947" opacity="1.000000" stroke="none" 
	d="
M534.921143,629.352783 
	C535.146729,653.748291 535.072205,678.431580 534.996887,703.114929 
	C534.987793,706.097168 534.974304,709.079468 534.893311,712.526733 
	C534.548889,711.555237 534.037109,710.119080 534.034363,708.682068 
	C533.987000,683.457397 533.993896,658.232666 534.029236,633.007996 
	C534.030823,631.885254 534.414856,630.763000 534.921143,629.352783 
z"/>
<path fill="#AC1947" opacity="1.000000" stroke="none" 
	d="
M268.182343,621.828125 
	C268.128204,621.666199 268.295166,621.329773 268.699463,620.831177 
	C268.759064,620.997192 268.581268,621.325378 268.182343,621.828125 
z"/>
<path fill="#AC1947" opacity="1.000000" stroke="none" 
	d="
M597.596680,366.585327 
	C578.057800,366.764557 558.175110,366.726562 537.956360,366.388794 
	C557.497864,366.182037 577.375366,366.275055 597.596680,366.585327 
z"/>
</svg>